<svg xmlns="http://www.w3.org/2000/svg" xmlns:xlink="http://www.w3.org/1999/xlink" width="500" zoomAndPan="magnify" viewBox="0 0 375 374.999991" height="500" preserveAspectRatio="xMidYMid meet" version="1.0"><defs><g/><clipPath id="511609fee6"><path d="M 168 176 L 207 176 L 207 231.445312 L 168 231.445312 Z M 168 176 " clip-rule="nonzero"/></clipPath><clipPath id="2415987e4a"><path d="M 183 191 L 192 191 L 192 231.445312 L 183 231.445312 Z M 183 191 " clip-rule="nonzero"/></clipPath></defs><g clip-path="url(#511609fee6)"><path fill="#00a79d" d="M 193.929688 231.136719 L 181.019531 231.136719 C 180.21875 231.136719 179.425781 231.058594 178.640625 230.898438 C 177.855469 230.742188 177.09375 230.511719 176.355469 230.203125 C 175.617188 229.894531 174.914062 229.519531 174.246094 229.074219 C 173.582031 228.628906 172.964844 228.125 172.398438 227.558594 C 171.835938 226.992188 171.328125 226.375 170.882812 225.710938 C 170.4375 225.042969 170.0625 224.34375 169.753906 223.601562 C 169.449219 222.863281 169.214844 222.101562 169.058594 221.316406 C 168.902344 220.53125 168.820312 219.738281 168.820312 218.9375 L 168.820312 180.585938 C 168.820312 180.296875 168.847656 180.011719 168.902344 179.726562 C 168.960938 179.445312 169.042969 179.171875 169.152344 178.902344 C 169.265625 178.636719 169.398438 178.382812 169.558594 178.144531 C 169.722656 177.902344 169.902344 177.679688 170.105469 177.476562 C 170.3125 177.273438 170.535156 177.089844 170.773438 176.929688 C 171.011719 176.769531 171.265625 176.632812 171.535156 176.523438 C 171.800781 176.414062 172.074219 176.328125 172.359375 176.273438 C 172.640625 176.21875 172.925781 176.1875 173.214844 176.1875 C 173.503906 176.1875 173.789062 176.21875 174.074219 176.273438 C 174.355469 176.328125 174.632812 176.414062 174.898438 176.523438 C 175.164062 176.632812 175.417969 176.769531 175.660156 176.929688 C 175.898438 177.089844 176.121094 177.273438 176.324219 177.476562 C 176.527344 177.679688 176.710938 177.902344 176.871094 178.144531 C 177.03125 178.382812 177.167969 178.636719 177.277344 178.902344 C 177.386719 179.171875 177.472656 179.445312 177.527344 179.726562 C 177.585938 180.011719 177.613281 180.296875 177.613281 180.585938 L 177.613281 218.9375 C 177.613281 219.386719 177.699219 219.816406 177.871094 220.230469 C 178.042969 220.648438 178.285156 221.011719 178.601562 221.328125 C 178.921875 221.648438 179.285156 221.890625 179.699219 222.0625 C 180.113281 222.234375 180.546875 222.320312 180.996094 222.320312 L 193.90625 222.320312 C 194.355469 222.320312 194.785156 222.234375 195.199219 222.0625 C 195.613281 221.890625 195.980469 221.644531 196.296875 221.328125 C 196.613281 221.011719 196.859375 220.644531 197.03125 220.230469 C 197.203125 219.816406 197.289062 219.386719 197.289062 218.9375 L 197.289062 180.585938 C 197.289062 180.296875 197.316406 180.011719 197.371094 179.726562 C 197.429688 179.445312 197.511719 179.171875 197.621094 178.902344 C 197.734375 178.636719 197.867188 178.382812 198.027344 178.144531 C 198.1875 177.902344 198.371094 177.679688 198.574219 177.476562 C 198.78125 177.273438 199 177.089844 199.242188 176.929688 C 199.480469 176.769531 199.734375 176.632812 200 176.523438 C 200.269531 176.414062 200.542969 176.328125 200.828125 176.273438 C 201.109375 176.21875 201.394531 176.1875 201.683594 176.1875 C 201.972656 176.1875 202.257812 176.21875 202.542969 176.273438 C 202.824219 176.328125 203.101562 176.414062 203.367188 176.523438 C 203.632812 176.632812 203.886719 176.769531 204.125 176.929688 C 204.367188 177.089844 204.589844 177.273438 204.792969 177.476562 C 204.996094 177.679688 205.179688 177.902344 205.339844 178.144531 C 205.5 178.382812 205.636719 178.636719 205.746094 178.902344 C 205.855469 179.171875 205.941406 179.445312 205.996094 179.726562 C 206.050781 180.011719 206.082031 180.296875 206.082031 180.585938 L 206.082031 218.9375 C 206.078125 219.738281 206 220.527344 205.84375 221.308594 C 205.6875 222.09375 205.457031 222.855469 205.148438 223.589844 C 204.84375 224.328125 204.46875 225.03125 204.027344 225.695312 C 203.585938 226.359375 203.082031 226.972656 202.519531 227.539062 C 201.953125 228.105469 201.339844 228.613281 200.679688 229.058594 C 200.015625 229.503906 199.316406 229.878906 198.582031 230.1875 C 197.84375 230.496094 197.085938 230.730469 196.300781 230.890625 C 195.519531 231.050781 194.730469 231.132812 193.929688 231.136719 Z M 193.929688 231.136719 " fill-opacity="1" fill-rule="nonzero"/></g><g clip-path="url(#2415987e4a)"><path fill="#00a79d" d="M 187.480469 231.136719 C 187.191406 231.136719 186.90625 231.109375 186.621094 231.054688 C 186.339844 230.996094 186.0625 230.914062 185.796875 230.804688 C 185.53125 230.691406 185.277344 230.558594 185.035156 230.398438 C 184.796875 230.238281 184.574219 230.054688 184.371094 229.851562 C 184.167969 229.648438 183.984375 229.425781 183.824219 229.183594 C 183.664062 228.945312 183.527344 228.691406 183.417969 228.425781 C 183.308594 228.15625 183.222656 227.882812 183.167969 227.597656 C 183.109375 227.316406 183.082031 227.03125 183.082031 226.742188 L 183.082031 195.601562 C 183.082031 195.3125 183.109375 195.027344 183.167969 194.742188 C 183.222656 194.460938 183.304688 194.183594 183.417969 193.917969 C 183.527344 193.652344 183.660156 193.398438 183.820312 193.15625 C 183.980469 192.917969 184.164062 192.695312 184.367188 192.488281 C 184.574219 192.285156 184.796875 192.101562 185.035156 191.941406 C 185.273438 191.78125 185.527344 191.644531 185.796875 191.535156 C 186.0625 191.425781 186.335938 191.339844 186.621094 191.285156 C 186.90625 191.226562 187.191406 191.199219 187.480469 191.199219 C 187.769531 191.199219 188.054688 191.226562 188.339844 191.285156 C 188.621094 191.339844 188.898438 191.425781 189.164062 191.535156 C 189.429688 191.644531 189.683594 191.78125 189.925781 191.941406 C 190.164062 192.101562 190.386719 192.285156 190.589844 192.488281 C 190.796875 192.695312 190.976562 192.917969 191.136719 193.15625 C 191.296875 193.398438 191.433594 193.652344 191.542969 193.917969 C 191.652344 194.183594 191.738281 194.460938 191.792969 194.742188 C 191.847656 195.027344 191.875 195.3125 191.875 195.601562 L 191.875 226.742188 C 191.875 227.03125 191.847656 227.316406 191.792969 227.601562 C 191.734375 227.882812 191.652344 228.15625 191.542969 228.425781 C 191.429688 228.691406 191.296875 228.945312 191.136719 229.183594 C 190.976562 229.425781 190.792969 229.648438 190.589844 229.851562 C 190.382812 230.054688 190.164062 230.238281 189.921875 230.398438 C 189.683594 230.558594 189.429688 230.691406 189.164062 230.804688 C 188.894531 230.914062 188.621094 230.996094 188.335938 231.054688 C 188.054688 231.109375 187.769531 231.136719 187.480469 231.136719 Z M 187.480469 231.136719 " fill-opacity="1" fill-rule="nonzero"/></g><path fill="#00a79d" d="M 215.863281 137.480469 L 215.863281 132.96875 C 215.863281 131.957031 215.761719 130.957031 215.566406 129.96875 C 215.367188 128.976562 215.074219 128.015625 214.6875 127.082031 C 214.300781 126.148438 213.828125 125.265625 213.265625 124.425781 C 212.707031 123.585938 212.066406 122.808594 211.355469 122.09375 C 210.640625 121.378906 209.863281 120.742188 209.023438 120.179688 C 208.183594 119.617188 207.300781 119.144531 206.367188 118.757812 C 205.433594 118.371094 204.472656 118.078125 203.484375 117.878906 C 202.492188 117.679688 201.492188 117.582031 200.484375 117.578125 L 174.476562 117.578125 C 173.464844 117.578125 172.464844 117.679688 171.476562 117.878906 C 170.484375 118.074219 169.523438 118.367188 168.589844 118.753906 C 167.65625 119.140625 166.769531 119.617188 165.929688 120.175781 C 165.089844 120.738281 164.3125 121.375 163.601562 122.089844 C 162.886719 122.804688 162.246094 123.582031 161.6875 124.421875 C 161.125 125.261719 160.652344 126.148438 160.261719 127.082031 C 159.875 128.015625 159.585938 128.976562 159.386719 129.964844 C 159.1875 130.957031 159.089844 131.957031 159.085938 132.96875 L 159.085938 173.703125 C 159.691406 173.621094 160.28125 173.488281 160.863281 173.300781 C 161.441406 173.113281 162 172.875 162.535156 172.585938 C 163.074219 172.296875 163.578125 171.964844 164.054688 171.585938 C 164.53125 171.207031 164.972656 170.785156 165.371094 170.328125 C 165.773438 169.871094 166.128906 169.378906 166.441406 168.855469 C 166.753906 168.332031 167.019531 167.785156 167.234375 167.214844 C 167.445312 166.648438 167.609375 166.0625 167.71875 165.460938 C 167.828125 164.863281 167.878906 164.257812 167.882812 163.648438 L 167.882812 132.96875 C 167.882812 132.535156 167.925781 132.105469 168.007812 131.679688 C 168.09375 131.257812 168.21875 130.84375 168.386719 130.445312 C 168.550781 130.042969 168.753906 129.664062 168.996094 129.304688 C 169.234375 128.945312 169.507812 128.613281 169.816406 128.304688 C 170.121094 128 170.453125 127.726562 170.8125 127.484375 C 171.171875 127.246094 171.554688 127.042969 171.953125 126.875 C 172.351562 126.710938 172.765625 126.585938 173.191406 126.5 C 173.613281 126.414062 174.042969 126.371094 174.476562 126.371094 L 200.484375 126.371094 C 200.917969 126.371094 201.34375 126.414062 201.769531 126.5 C 202.195312 126.585938 202.605469 126.710938 203.007812 126.875 C 203.40625 127.042969 203.785156 127.246094 204.144531 127.484375 C 204.503906 127.726562 204.839844 128 205.144531 128.304688 C 205.449219 128.613281 205.722656 128.945312 205.964844 129.304688 C 206.207031 129.664062 206.410156 130.042969 206.574219 130.445312 C 206.738281 130.84375 206.867188 131.257812 206.949219 131.679688 C 207.035156 132.105469 207.078125 132.535156 207.078125 132.96875 L 207.078125 163.648438 C 207.078125 164.257812 207.132812 164.863281 207.242188 165.460938 C 207.351562 166.0625 207.511719 166.644531 207.726562 167.214844 C 207.941406 167.785156 208.203125 168.332031 208.515625 168.855469 C 208.828125 169.375 209.183594 169.867188 209.585938 170.324219 C 209.984375 170.785156 210.421875 171.203125 210.898438 171.582031 C 211.375 171.960938 211.882812 172.296875 212.417969 172.585938 C 212.953125 172.871094 213.511719 173.109375 214.089844 173.296875 C 214.667969 173.488281 215.261719 173.621094 215.863281 173.703125 Z M 215.863281 137.480469 " fill-opacity="1" fill-rule="nonzero"/><path fill="#00a79d" d="M 187.480469 115.066406 C 186.871094 115.066406 186.261719 115.039062 185.65625 114.976562 C 185.050781 114.917969 184.449219 114.828125 183.851562 114.710938 C 183.253906 114.589844 182.664062 114.445312 182.082031 114.265625 C 181.496094 114.089844 180.925781 113.886719 180.363281 113.652344 C 179.796875 113.417969 179.25 113.160156 178.710938 112.871094 C 178.175781 112.585938 177.652344 112.269531 177.144531 111.933594 C 176.640625 111.59375 176.148438 111.230469 175.679688 110.84375 C 175.207031 110.457031 174.757812 110.050781 174.328125 109.621094 C 173.894531 109.1875 173.488281 108.738281 173.101562 108.265625 C 172.714844 107.796875 172.351562 107.308594 172.011719 106.800781 C 171.675781 106.292969 171.363281 105.773438 171.074219 105.234375 C 170.789062 104.699219 170.527344 104.148438 170.292969 103.585938 C 170.0625 103.023438 169.855469 102.449219 169.679688 101.867188 C 169.503906 101.28125 169.355469 100.691406 169.234375 100.09375 C 169.117188 99.496094 169.027344 98.894531 168.96875 98.289062 C 168.910156 97.683594 168.878906 97.074219 168.878906 96.464844 C 168.878906 95.855469 168.910156 95.25 168.96875 94.644531 C 169.027344 94.035156 169.117188 93.433594 169.234375 92.835938 C 169.355469 92.238281 169.503906 91.648438 169.679688 91.066406 C 169.855469 90.484375 170.0625 89.910156 170.292969 89.347656 C 170.527344 88.785156 170.789062 88.234375 171.074219 87.699219 C 171.363281 87.160156 171.675781 86.640625 172.011719 86.132812 C 172.351562 85.625 172.714844 85.136719 173.101562 84.667969 C 173.488281 84.195312 173.894531 83.746094 174.328125 83.3125 C 174.757812 82.882812 175.207031 82.472656 175.679688 82.085938 C 176.148438 81.699219 176.640625 81.339844 177.144531 81 C 177.652344 80.660156 178.175781 80.347656 178.710938 80.0625 C 179.25 79.773438 179.796875 79.515625 180.363281 79.28125 C 180.925781 79.046875 181.496094 78.84375 182.082031 78.667969 C 182.664062 78.488281 183.253906 78.339844 183.851562 78.222656 C 184.449219 78.105469 185.050781 78.015625 185.65625 77.953125 C 186.261719 77.894531 186.871094 77.867188 187.480469 77.867188 C 188.089844 77.867188 188.695312 77.894531 189.304688 77.953125 C 189.910156 78.015625 190.511719 78.105469 191.109375 78.222656 C 191.707031 78.339844 192.296875 78.488281 192.878906 78.667969 C 193.460938 78.84375 194.035156 79.046875 194.597656 79.28125 C 195.160156 79.515625 195.710938 79.773438 196.25 80.0625 C 196.785156 80.347656 197.308594 80.660156 197.8125 81 C 198.320312 81.339844 198.808594 81.699219 199.28125 82.085938 C 199.75 82.472656 200.203125 82.882812 200.632812 83.3125 C 201.0625 83.746094 201.472656 84.195312 201.859375 84.667969 C 202.246094 85.136719 202.609375 85.625 202.945312 86.132812 C 203.285156 86.640625 203.597656 87.160156 203.882812 87.699219 C 204.171875 88.234375 204.433594 88.785156 204.664062 89.347656 C 204.898438 89.910156 205.101562 90.484375 205.28125 91.066406 C 205.457031 91.648438 205.605469 92.238281 205.722656 92.835938 C 205.84375 93.433594 205.929688 94.035156 205.992188 94.644531 C 206.050781 95.25 206.082031 95.855469 206.082031 96.464844 C 206.082031 97.074219 206.050781 97.683594 205.992188 98.289062 C 205.929688 98.894531 205.84375 99.496094 205.722656 100.09375 C 205.605469 100.691406 205.457031 101.28125 205.28125 101.867188 C 205.101562 102.449219 204.898438 103.023438 204.664062 103.585938 C 204.433594 104.148438 204.171875 104.699219 203.882812 105.234375 C 203.597656 105.773438 203.285156 106.292969 202.945312 106.800781 C 202.609375 107.308594 202.246094 107.796875 201.859375 108.265625 C 201.472656 108.738281 201.0625 109.1875 200.632812 109.621094 C 200.203125 110.050781 199.75 110.457031 199.28125 110.84375 C 198.808594 111.230469 198.320312 111.59375 197.8125 111.933594 C 197.308594 112.269531 196.785156 112.585938 196.25 112.871094 C 195.710938 113.160156 195.160156 113.417969 194.597656 113.652344 C 194.035156 113.886719 193.460938 114.089844 192.878906 114.265625 C 192.296875 114.445312 191.707031 114.589844 191.109375 114.710938 C 190.511719 114.828125 189.910156 114.917969 189.304688 114.976562 C 188.695312 115.039062 188.089844 115.066406 187.480469 115.066406 Z M 187.480469 86.617188 C 186.832031 86.617188 186.195312 86.679688 185.558594 86.804688 C 184.925781 86.929688 184.3125 87.117188 183.714844 87.363281 C 183.117188 87.609375 182.550781 87.910156 182.011719 88.269531 C 181.476562 88.628906 180.980469 89.035156 180.523438 89.492188 C 180.066406 89.949219 179.65625 90.445312 179.296875 90.980469 C 178.9375 91.519531 178.636719 92.085938 178.386719 92.683594 C 178.140625 93.277344 177.953125 93.894531 177.828125 94.527344 C 177.703125 95.160156 177.636719 95.800781 177.636719 96.445312 C 177.636719 97.09375 177.699219 97.730469 177.828125 98.367188 C 177.953125 99 178.140625 99.613281 178.386719 100.210938 C 178.632812 100.808594 178.9375 101.375 179.292969 101.910156 C 179.652344 102.449219 180.0625 102.945312 180.519531 103.402344 C 180.976562 103.859375 181.472656 104.265625 182.007812 104.625 C 182.546875 104.984375 183.113281 105.289062 183.710938 105.535156 C 184.304688 105.78125 184.921875 105.96875 185.554688 106.09375 C 186.1875 106.21875 186.828125 106.28125 187.472656 106.28125 C 188.121094 106.28125 188.757812 106.21875 189.394531 106.09375 C 190.027344 105.96875 190.640625 105.78125 191.238281 105.53125 C 191.835938 105.285156 192.402344 104.980469 192.9375 104.621094 C 193.476562 104.265625 193.972656 103.855469 194.429688 103.398438 C 194.886719 102.941406 195.292969 102.445312 195.652344 101.90625 C 196.007812 101.371094 196.3125 100.804688 196.558594 100.207031 C 196.804688 99.609375 196.992188 98.992188 197.117188 98.359375 C 197.242188 97.726562 197.304688 97.085938 197.304688 96.441406 C 197.304688 95.796875 197.238281 95.15625 197.113281 94.527344 C 196.984375 93.894531 196.800781 93.28125 196.550781 92.683594 C 196.304688 92.089844 196.003906 91.523438 195.644531 90.988281 C 195.285156 90.449219 194.878906 89.953125 194.421875 89.5 C 193.964844 89.042969 193.46875 88.636719 192.933594 88.277344 C 192.398438 87.917969 191.832031 87.617188 191.238281 87.367188 C 190.640625 87.121094 190.027344 86.933594 189.394531 86.808594 C 188.761719 86.679688 188.125 86.617188 187.480469 86.617188 Z M 187.480469 86.617188 " fill-opacity="1" fill-rule="nonzero"/><path fill="#00a79d" d="M 156.347656 16.894531 L 156.347656 9.285156 C 103.335938 23.109375 64.09375 71.398438 64.09375 128.679688 C 64.09375 136.320312 64.789062 143.894531 66.183594 151.40625 L 66.734375 154.359375 L 83.769531 154.578125 L 83.863281 147.257812 L 72.871094 147.113281 C 71.894531 141.007812 71.40625 134.863281 71.410156 128.679688 C 71.417969 75.472656 107.425781 30.542969 156.347656 16.894531 Z M 156.347656 16.894531 " fill-opacity="1" fill-rule="nonzero"/><path fill="#00a79d" d="M 127.957031 96.609375 C 127.347656 96.609375 126.738281 96.582031 126.132812 96.519531 C 125.527344 96.460938 124.925781 96.371094 124.328125 96.253906 C 123.730469 96.132812 123.140625 95.984375 122.554688 95.808594 C 121.972656 95.632812 121.402344 95.425781 120.835938 95.195312 C 120.273438 94.960938 119.726562 94.699219 119.1875 94.414062 C 118.648438 94.125 118.128906 93.8125 117.621094 93.476562 C 117.117188 93.136719 116.625 92.773438 116.15625 92.386719 C 115.683594 92 115.234375 91.59375 114.804688 91.160156 C 114.371094 90.730469 113.964844 90.28125 113.578125 89.808594 C 113.191406 89.339844 112.828125 88.851562 112.488281 88.34375 C 112.152344 87.835938 111.839844 87.316406 111.550781 86.777344 C 111.265625 86.242188 111.003906 85.691406 110.769531 85.128906 C 110.539062 84.566406 110.332031 83.992188 110.15625 83.410156 C 109.980469 82.824219 109.832031 82.234375 109.710938 81.636719 C 109.59375 81.039062 109.503906 80.4375 109.445312 79.832031 C 109.386719 79.226562 109.355469 78.617188 109.355469 78.007812 C 109.355469 77.398438 109.386719 76.792969 109.445312 76.1875 C 109.503906 75.578125 109.59375 74.976562 109.710938 74.378906 C 109.832031 73.78125 109.980469 73.191406 110.15625 72.609375 C 110.332031 72.027344 110.539062 71.453125 110.769531 70.890625 C 111.003906 70.328125 111.265625 69.777344 111.550781 69.242188 C 111.839844 68.703125 112.152344 68.179688 112.488281 67.675781 C 112.828125 67.167969 113.191406 66.679688 113.578125 66.207031 C 113.964844 65.738281 114.371094 65.285156 114.804688 64.855469 C 115.234375 64.425781 115.683594 64.015625 116.15625 63.628906 C 116.625 63.242188 117.117188 62.882812 117.621094 62.542969 C 118.128906 62.203125 118.648438 61.890625 119.1875 61.605469 C 119.726562 61.316406 120.273438 61.058594 120.835938 60.824219 C 121.402344 60.589844 121.972656 60.386719 122.554688 60.207031 C 123.140625 60.03125 123.730469 59.882812 124.328125 59.765625 C 124.925781 59.648438 125.527344 59.558594 126.132812 59.496094 C 126.738281 59.4375 127.347656 59.40625 127.957031 59.40625 C 128.566406 59.40625 129.171875 59.4375 129.78125 59.496094 C 130.386719 59.558594 130.988281 59.648438 131.585938 59.765625 C 132.183594 59.882812 132.773438 60.03125 133.355469 60.207031 C 133.9375 60.386719 134.511719 60.589844 135.074219 60.824219 C 135.636719 61.058594 136.1875 61.316406 136.726562 61.605469 C 137.261719 61.890625 137.785156 62.203125 138.289062 62.542969 C 138.796875 62.882812 139.285156 63.242188 139.757812 63.628906 C 140.226562 64.015625 140.679688 64.425781 141.109375 64.855469 C 141.539062 65.285156 141.949219 65.738281 142.335938 66.207031 C 142.722656 66.679688 143.082031 67.167969 143.421875 67.675781 C 143.761719 68.179688 144.074219 68.703125 144.359375 69.242188 C 144.648438 69.777344 144.90625 70.328125 145.140625 70.890625 C 145.375 71.453125 145.578125 72.027344 145.757812 72.609375 C 145.933594 73.191406 146.082031 73.78125 146.199219 74.378906 C 146.320312 74.976562 146.40625 75.578125 146.46875 76.1875 C 146.527344 76.792969 146.558594 77.398438 146.558594 78.007812 C 146.558594 78.617188 146.527344 79.226562 146.46875 79.832031 C 146.40625 80.4375 146.320312 81.039062 146.199219 81.636719 C 146.082031 82.234375 145.933594 82.824219 145.757812 83.410156 C 145.578125 83.992188 145.375 84.566406 145.140625 85.128906 C 144.90625 85.691406 144.648438 86.242188 144.359375 86.777344 C 144.074219 87.316406 143.761719 87.835938 143.421875 88.34375 C 143.082031 88.851562 142.722656 89.339844 142.335938 89.808594 C 141.949219 90.28125 141.539062 90.730469 141.109375 91.160156 C 140.679688 91.59375 140.226562 92 139.757812 92.386719 C 139.285156 92.773438 138.796875 93.136719 138.289062 93.476562 C 137.785156 93.8125 137.261719 94.125 136.726562 94.414062 C 136.1875 94.699219 135.636719 94.960938 135.074219 95.195312 C 134.511719 95.425781 133.9375 95.632812 133.355469 95.808594 C 132.773438 95.984375 132.183594 96.132812 131.585938 96.253906 C 130.988281 96.371094 130.386719 96.460938 129.78125 96.519531 C 129.171875 96.582031 128.566406 96.609375 127.957031 96.609375 Z M 127.957031 68.160156 C 127.308594 68.160156 126.671875 68.222656 126.035156 68.347656 C 125.402344 68.472656 124.789062 68.660156 124.191406 68.910156 C 123.59375 69.15625 123.027344 69.460938 122.488281 69.820312 C 121.953125 70.179688 121.457031 70.585938 121 71.042969 C 120.542969 71.5 120.136719 71.996094 119.777344 72.535156 C 119.417969 73.074219 119.113281 73.640625 118.867188 74.238281 C 118.621094 74.835938 118.433594 75.449219 118.308594 76.082031 C 118.183594 76.71875 118.121094 77.355469 118.121094 78.003906 C 118.125 78.648438 118.1875 79.289062 118.3125 79.921875 C 118.441406 80.554688 118.628906 81.171875 118.875 81.769531 C 119.125 82.363281 119.429688 82.929688 119.789062 83.46875 C 120.148438 84.003906 120.558594 84.5 121.015625 84.957031 C 121.472656 85.414062 121.96875 85.820312 122.507812 86.179688 C 123.046875 86.535156 123.613281 86.839844 124.210938 87.085938 C 124.808594 87.332031 125.425781 87.515625 126.058594 87.640625 C 126.691406 87.765625 127.332031 87.828125 127.980469 87.824219 C 128.625 87.824219 129.265625 87.757812 129.898438 87.632812 C 130.53125 87.503906 131.144531 87.316406 131.742188 87.066406 C 132.339844 86.816406 132.90625 86.515625 133.441406 86.152344 C 133.976562 85.792969 134.472656 85.382812 134.929688 84.925781 C 135.386719 84.46875 135.792969 83.96875 136.148438 83.429688 C 136.507812 82.890625 136.808594 82.324219 137.054688 81.726562 C 137.296875 81.128906 137.484375 80.511719 137.605469 79.878906 C 137.730469 79.246094 137.792969 78.605469 137.789062 77.957031 C 137.789062 77.3125 137.722656 76.675781 137.597656 76.042969 C 137.472656 75.410156 137.285156 74.792969 137.035156 74.199219 C 136.789062 73.601562 136.484375 73.035156 136.128906 72.5 C 135.769531 71.960938 135.359375 71.464844 134.90625 71.011719 C 134.449219 70.554688 133.953125 70.144531 133.414062 69.789062 C 132.878906 69.429688 132.3125 69.125 131.714844 68.878906 C 131.121094 68.628906 130.507812 68.445312 129.875 68.316406 C 129.242188 68.191406 128.601562 68.125 127.957031 68.125 Z M 127.957031 68.160156 " fill-opacity="1" fill-rule="nonzero"/><path fill="#00a79d" d="M 134.414062 216.113281 L 121.503906 216.113281 C 120.703125 216.113281 119.910156 216.035156 119.125 215.878906 C 118.339844 215.722656 117.574219 215.488281 116.835938 215.183594 C 116.097656 214.875 115.394531 214.5 114.726562 214.054688 C 114.058594 213.609375 113.445312 213.105469 112.878906 212.539062 C 112.3125 211.972656 111.804688 211.355469 111.359375 210.691406 C 110.914062 210.023438 110.539062 209.320312 110.230469 208.582031 C 109.921875 207.839844 109.691406 207.078125 109.535156 206.292969 C 109.375 205.507812 109.296875 204.714844 109.296875 203.914062 L 109.296875 155.3125 C 109.296875 155.023438 109.324219 154.738281 109.382812 154.457031 C 109.4375 154.171875 109.519531 153.898438 109.632812 153.632812 C 109.742188 153.367188 109.878906 153.113281 110.039062 152.875 C 110.199219 152.632812 110.382812 152.410156 110.585938 152.207031 C 110.789062 152.003906 111.011719 151.820312 111.25 151.660156 C 111.492188 151.5 111.746094 151.367188 112.011719 151.253906 C 112.277344 151.144531 112.550781 151.0625 112.835938 151.003906 C 113.117188 150.949219 113.402344 150.921875 113.691406 150.921875 C 113.980469 150.921875 114.265625 150.949219 114.550781 151.003906 C 114.832031 151.0625 115.109375 151.144531 115.375 151.253906 C 115.640625 151.367188 115.894531 151.5 116.132812 151.660156 C 116.375 151.820312 116.597656 152.003906 116.800781 152.207031 C 117.003906 152.410156 117.1875 152.632812 117.347656 152.875 C 117.507812 153.113281 117.644531 153.367188 117.753906 153.632812 C 117.863281 153.898438 117.949219 154.171875 118.003906 154.457031 C 118.058594 154.738281 118.089844 155.023438 118.089844 155.3125 L 118.089844 203.914062 C 118.089844 204.363281 118.175781 204.792969 118.347656 205.207031 C 118.519531 205.621094 118.761719 205.988281 119.078125 206.304688 C 119.398438 206.621094 119.761719 206.867188 120.175781 207.039062 C 120.589844 207.210938 121.023438 207.296875 121.472656 207.296875 L 134.414062 207.296875 C 134.863281 207.296875 135.296875 207.210938 135.710938 207.039062 C 136.125 206.867188 136.488281 206.621094 136.808594 206.304688 C 137.125 205.988281 137.367188 205.621094 137.539062 205.207031 C 137.710938 204.792969 137.796875 204.363281 137.796875 203.914062 L 137.796875 184.617188 C 137.796875 184.332031 137.824219 184.042969 137.882812 183.761719 C 137.9375 183.476562 138.023438 183.203125 138.132812 182.9375 C 138.242188 182.667969 138.378906 182.417969 138.539062 182.175781 C 138.699219 181.9375 138.882812 181.714844 139.085938 181.511719 C 139.289062 181.304688 139.511719 181.125 139.75 180.964844 C 139.992188 180.804688 140.246094 180.667969 140.511719 180.558594 C 140.777344 180.445312 141.054688 180.363281 141.335938 180.308594 C 141.621094 180.25 141.90625 180.222656 142.195312 180.222656 C 142.484375 180.222656 142.769531 180.25 143.050781 180.308594 C 143.335938 180.363281 143.609375 180.445312 143.878906 180.558594 C 144.144531 180.667969 144.398438 180.804688 144.636719 180.964844 C 144.878906 181.125 145.097656 181.304688 145.304688 181.511719 C 145.507812 181.714844 145.691406 181.9375 145.851562 182.175781 C 146.011719 182.417969 146.144531 182.667969 146.257812 182.9375 C 146.367188 183.203125 146.449219 183.476562 146.507812 183.761719 C 146.5625 184.042969 146.589844 184.332031 146.589844 184.617188 L 146.589844 203.914062 C 146.589844 204.714844 146.511719 205.503906 146.355469 206.289062 C 146.199219 207.074219 145.964844 207.835938 145.660156 208.574219 C 145.355469 209.3125 144.980469 210.015625 144.535156 210.679688 C 144.089844 211.34375 143.585938 211.960938 143.023438 212.527344 C 142.457031 213.09375 141.84375 213.597656 141.179688 214.042969 C 140.515625 214.488281 139.8125 214.867188 139.074219 215.171875 C 138.335938 215.480469 137.574219 215.714844 136.792969 215.871094 C 136.007812 216.03125 135.214844 216.109375 134.414062 216.113281 Z M 134.414062 216.113281 " fill-opacity="1" fill-rule="nonzero"/><path fill="#00a79d" d="M 127.957031 216.113281 C 127.667969 216.113281 127.382812 216.085938 127.097656 216.03125 C 126.816406 215.976562 126.539062 215.890625 126.273438 215.78125 C 126.007812 215.671875 125.753906 215.539062 125.515625 215.378906 C 125.273438 215.21875 125.050781 215.035156 124.847656 214.832031 C 124.644531 214.628906 124.460938 214.40625 124.300781 214.167969 C 124.140625 213.925781 124.003906 213.671875 123.894531 213.40625 C 123.785156 213.140625 123.699219 212.867188 123.644531 212.582031 C 123.585938 212.300781 123.558594 212.015625 123.558594 211.726562 L 123.558594 170.296875 C 123.558594 170.007812 123.585938 169.722656 123.644531 169.4375 C 123.699219 169.15625 123.785156 168.878906 123.894531 168.613281 C 124.003906 168.347656 124.140625 168.09375 124.300781 167.851562 C 124.460938 167.613281 124.644531 167.390625 124.847656 167.1875 C 125.050781 166.984375 125.273438 166.800781 125.511719 166.640625 C 125.753906 166.480469 126.007812 166.34375 126.273438 166.234375 C 126.539062 166.125 126.816406 166.039062 127.097656 165.984375 C 127.382812 165.925781 127.667969 165.898438 127.957031 165.898438 C 128.246094 165.898438 128.53125 165.925781 128.8125 165.984375 C 129.097656 166.039062 129.371094 166.125 129.640625 166.234375 C 129.90625 166.34375 130.160156 166.480469 130.398438 166.640625 C 130.640625 166.800781 130.859375 166.984375 131.066406 167.1875 C 131.269531 167.390625 131.453125 167.613281 131.613281 167.851562 C 131.773438 168.09375 131.90625 168.347656 132.019531 168.613281 C 132.128906 168.878906 132.210938 169.15625 132.269531 169.4375 C 132.324219 169.722656 132.351562 170.007812 132.351562 170.296875 L 132.351562 211.726562 C 132.351562 212.015625 132.324219 212.300781 132.269531 212.582031 C 132.210938 212.867188 132.128906 213.140625 132.019531 213.40625 C 131.90625 213.671875 131.773438 213.925781 131.613281 214.167969 C 131.449219 214.40625 131.269531 214.628906 131.066406 214.832031 C 130.859375 215.035156 130.636719 215.21875 130.398438 215.378906 C 130.15625 215.539062 129.90625 215.671875 129.636719 215.78125 C 129.371094 215.890625 129.097656 215.976562 128.8125 216.03125 C 128.53125 216.085938 128.246094 216.113281 127.957031 216.113281 Z M 127.957031 216.113281 " fill-opacity="1" fill-rule="nonzero"/><path fill="#00a79d" d="M 156.347656 163.648438 L 156.347656 114.28125 C 156.347656 113.273438 156.246094 112.273438 156.046875 111.28125 C 155.851562 110.292969 155.558594 109.332031 155.171875 108.398438 C 154.78125 107.464844 154.308594 106.578125 153.746094 105.738281 C 153.183594 104.902344 152.546875 104.125 151.832031 103.410156 C 151.117188 102.695312 150.34375 102.058594 149.503906 101.5 C 148.664062 100.9375 147.777344 100.464844 146.84375 100.078125 C 145.910156 99.691406 144.949219 99.398438 143.960938 99.199219 C 142.96875 99.003906 141.96875 98.902344 140.960938 98.902344 L 114.953125 98.902344 C 113.945312 98.90625 112.945312 99.007812 111.957031 99.207031 C 110.96875 99.40625 110.011719 99.699219 109.082031 100.089844 C 108.152344 100.476562 107.265625 100.953125 106.429688 101.511719 C 105.59375 102.074219 104.820312 102.710938 104.105469 103.425781 C 103.394531 104.140625 102.757812 104.914062 102.199219 105.753906 C 101.640625 106.589844 101.167969 107.476562 100.78125 108.40625 C 100.394531 109.339844 100.101562 110.296875 99.90625 111.285156 C 99.707031 112.273438 99.609375 113.273438 99.605469 114.28125 L 99.605469 135.34375 C 99.605469 136.066406 99.535156 136.777344 99.394531 137.488281 C 99.253906 138.195312 99.046875 138.882812 98.769531 139.550781 C 98.492188 140.214844 98.15625 140.847656 97.753906 141.449219 C 97.351562 142.050781 96.898438 142.605469 96.386719 143.113281 C 95.875 143.625 95.320312 144.082031 94.722656 144.480469 C 94.121094 144.882812 93.488281 145.222656 92.820312 145.496094 C 92.15625 145.773438 91.46875 145.980469 90.757812 146.125 C 90.050781 146.265625 89.335938 146.335938 88.613281 146.335938 L 87.449219 146.335938 L 87.449219 155.128906 L 88.613281 155.128906 C 89.261719 155.125 89.910156 155.09375 90.554688 155.03125 C 91.199219 154.964844 91.835938 154.871094 92.472656 154.742188 C 93.105469 154.617188 93.734375 154.457031 94.355469 154.269531 C 94.972656 154.082031 95.582031 153.863281 96.179688 153.613281 C 96.777344 153.367188 97.363281 153.089844 97.933594 152.785156 C 98.503906 152.476562 99.058594 152.144531 99.597656 151.785156 C 100.136719 151.425781 100.65625 151.039062 101.15625 150.628906 C 101.65625 150.21875 102.136719 149.78125 102.59375 149.324219 C 103.050781 148.867188 103.488281 148.386719 103.898438 147.886719 C 104.308594 147.386719 104.695312 146.867188 105.054688 146.328125 C 105.414062 145.789062 105.746094 145.234375 106.050781 144.664062 C 106.355469 144.09375 106.632812 143.507812 106.882812 142.910156 C 107.128906 142.3125 107.347656 141.703125 107.535156 141.082031 C 107.722656 140.464844 107.882812 139.835938 108.007812 139.199219 C 108.136719 138.566406 108.230469 137.925781 108.292969 137.28125 C 108.359375 136.636719 108.390625 135.992188 108.390625 135.34375 L 108.390625 114.28125 C 108.390625 113.847656 108.433594 113.421875 108.519531 112.996094 C 108.605469 112.570312 108.730469 112.160156 108.894531 111.761719 C 109.0625 111.359375 109.265625 110.980469 109.503906 110.621094 C 109.746094 110.261719 110.019531 109.929688 110.324219 109.625 C 110.632812 109.316406 110.964844 109.042969 111.324219 108.804688 C 111.683594 108.5625 112.066406 108.363281 112.464844 108.195312 C 112.863281 108.03125 113.277344 107.90625 113.699219 107.820312 C 114.125 107.738281 114.554688 107.695312 114.984375 107.695312 L 140.960938 107.695312 C 141.394531 107.695312 141.820312 107.738281 142.246094 107.820312 C 142.671875 107.90625 143.082031 108.03125 143.480469 108.195312 C 143.882812 108.363281 144.261719 108.5625 144.621094 108.804688 C 144.980469 109.042969 145.3125 109.316406 145.621094 109.625 C 145.925781 109.929688 146.199219 110.261719 146.441406 110.621094 C 146.679688 110.980469 146.882812 111.359375 147.050781 111.761719 C 147.214844 112.160156 147.34375 112.570312 147.425781 112.996094 C 147.511719 113.421875 147.554688 113.847656 147.554688 114.28125 L 147.554688 163.648438 C 147.554688 164.257812 147.609375 164.863281 147.71875 165.460938 C 147.828125 166.0625 147.988281 166.648438 148.203125 167.214844 C 148.417969 167.785156 148.679688 168.332031 148.992188 168.855469 C 149.304688 169.378906 149.664062 169.871094 150.0625 170.328125 C 150.464844 170.785156 150.902344 171.207031 151.378906 171.585938 C 151.855469 171.964844 152.363281 172.296875 152.898438 172.585938 C 153.4375 172.875 153.996094 173.113281 154.574219 173.300781 C 155.152344 173.488281 155.746094 173.621094 156.347656 173.703125 Z M 156.347656 163.648438 " fill-opacity="1" fill-rule="nonzero"/><path fill="#00a79d" d="M 218.609375 9.277344 L 218.609375 16.886719 C 267.53125 30.542969 303.535156 75.472656 303.535156 128.679688 C 303.535156 134.847656 303.054688 140.976562 302.089844 147.070312 L 290.691406 147.070312 L 290.691406 154.402344 L 308.242188 154.402344 L 308.800781 151.40625 C 310.195312 143.894531 310.890625 136.320312 310.890625 128.679688 C 310.863281 71.398438 271.625 23.109375 218.609375 9.277344 Z M 218.609375 9.277344 " fill-opacity="1" fill-rule="nonzero"/><path fill="#00a79d" d="M 247.003906 96.609375 C 246.394531 96.609375 245.785156 96.582031 245.179688 96.519531 C 244.574219 96.460938 243.972656 96.371094 243.375 96.253906 C 242.777344 96.132812 242.1875 95.984375 241.605469 95.808594 C 241.019531 95.632812 240.449219 95.425781 239.886719 95.195312 C 239.320312 94.960938 238.773438 94.699219 238.234375 94.414062 C 237.699219 94.125 237.175781 93.8125 236.667969 93.476562 C 236.164062 93.136719 235.671875 92.773438 235.203125 92.386719 C 234.730469 92 234.28125 91.59375 233.851562 91.160156 C 233.417969 90.730469 233.011719 90.28125 232.625 89.808594 C 232.238281 89.339844 231.875 88.851562 231.535156 88.34375 C 231.199219 87.835938 230.886719 87.316406 230.597656 86.777344 C 230.3125 86.242188 230.050781 85.691406 229.816406 85.128906 C 229.585938 84.566406 229.378906 83.992188 229.203125 83.410156 C 229.027344 82.824219 228.878906 82.234375 228.757812 81.636719 C 228.640625 81.039062 228.550781 80.4375 228.492188 79.832031 C 228.433594 79.226562 228.402344 78.617188 228.402344 78.007812 C 228.402344 77.398438 228.433594 76.792969 228.492188 76.1875 C 228.550781 75.578125 228.640625 74.976562 228.757812 74.378906 C 228.878906 73.78125 229.027344 73.191406 229.203125 72.609375 C 229.378906 72.027344 229.585938 71.453125 229.816406 70.890625 C 230.050781 70.328125 230.3125 69.777344 230.597656 69.242188 C 230.886719 68.703125 231.199219 68.179688 231.535156 67.675781 C 231.875 67.167969 232.238281 66.679688 232.625 66.207031 C 233.011719 65.738281 233.417969 65.285156 233.851562 64.855469 C 234.28125 64.425781 234.730469 64.015625 235.203125 63.628906 C 235.671875 63.242188 236.164062 62.882812 236.667969 62.542969 C 237.175781 62.203125 237.699219 61.890625 238.234375 61.605469 C 238.773438 61.316406 239.320312 61.058594 239.886719 60.824219 C 240.449219 60.589844 241.019531 60.386719 241.605469 60.207031 C 242.1875 60.03125 242.777344 59.882812 243.375 59.765625 C 243.972656 59.648438 244.574219 59.558594 245.179688 59.496094 C 245.785156 59.4375 246.394531 59.40625 247.003906 59.40625 C 247.613281 59.40625 248.21875 59.4375 248.828125 59.496094 C 249.433594 59.558594 250.035156 59.648438 250.632812 59.765625 C 251.230469 59.882812 251.820312 60.03125 252.402344 60.207031 C 252.984375 60.386719 253.558594 60.589844 254.121094 60.824219 C 254.683594 61.058594 255.234375 61.316406 255.773438 61.605469 C 256.308594 61.890625 256.832031 62.203125 257.335938 62.542969 C 257.84375 62.882812 258.332031 63.242188 258.804688 63.628906 C 259.273438 64.015625 259.726562 64.425781 260.15625 64.855469 C 260.585938 65.285156 260.996094 65.738281 261.382812 66.207031 C 261.769531 66.679688 262.132812 67.167969 262.46875 67.675781 C 262.808594 68.179688 263.121094 68.703125 263.40625 69.242188 C 263.695312 69.777344 263.957031 70.328125 264.1875 70.890625 C 264.421875 71.453125 264.625 72.027344 264.804688 72.609375 C 264.980469 73.191406 265.128906 73.78125 265.246094 74.378906 C 265.367188 74.976562 265.457031 75.578125 265.515625 76.1875 C 265.574219 76.792969 265.605469 77.398438 265.605469 78.007812 C 265.605469 78.617188 265.574219 79.226562 265.515625 79.832031 C 265.457031 80.4375 265.367188 81.039062 265.246094 81.636719 C 265.128906 82.234375 264.980469 82.824219 264.804688 83.410156 C 264.625 83.992188 264.421875 84.566406 264.1875 85.128906 C 263.957031 85.691406 263.695312 86.242188 263.40625 86.777344 C 263.121094 87.316406 262.808594 87.835938 262.46875 88.34375 C 262.132812 88.851562 261.769531 89.339844 261.382812 89.808594 C 260.996094 90.28125 260.585938 90.730469 260.15625 91.160156 C 259.726562 91.59375 259.273438 92 258.804688 92.386719 C 258.332031 92.773438 257.84375 93.136719 257.335938 93.476562 C 256.832031 93.8125 256.308594 94.125 255.773438 94.414062 C 255.234375 94.699219 254.683594 94.960938 254.121094 95.195312 C 253.558594 95.425781 252.984375 95.632812 252.402344 95.808594 C 251.820312 95.984375 251.230469 96.132812 250.632812 96.253906 C 250.035156 96.371094 249.433594 96.460938 248.828125 96.519531 C 248.21875 96.582031 247.613281 96.609375 247.003906 96.609375 Z M 247.003906 68.160156 C 246.359375 68.160156 245.71875 68.226562 245.085938 68.355469 C 244.453125 68.484375 243.839844 68.671875 243.242188 68.921875 C 242.648438 69.167969 242.082031 69.472656 241.546875 69.835938 C 241.011719 70.195312 240.515625 70.605469 240.058594 71.0625 C 239.605469 71.519531 239.199219 72.019531 238.84375 72.558594 C 238.484375 73.09375 238.183594 73.664062 237.941406 74.261719 C 237.695312 74.859375 237.511719 75.472656 237.386719 76.105469 C 237.261719 76.742188 237.203125 77.378906 237.203125 78.027344 C 237.207031 78.671875 237.269531 79.3125 237.398438 79.945312 C 237.527344 80.578125 237.714844 81.191406 237.964844 81.785156 C 238.214844 82.382812 238.519531 82.949219 238.878906 83.484375 C 239.242188 84.019531 239.648438 84.515625 240.109375 84.96875 C 240.566406 85.425781 241.0625 85.828125 241.601562 86.1875 C 242.140625 86.542969 242.707031 86.84375 243.304688 87.089844 C 243.902344 87.335938 244.519531 87.519531 245.152344 87.644531 C 245.785156 87.765625 246.425781 87.828125 247.070312 87.824219 C 247.714844 87.824219 248.355469 87.757812 248.988281 87.628906 C 249.621094 87.5 250.234375 87.3125 250.832031 87.0625 C 251.425781 86.816406 251.992188 86.511719 252.527344 86.148438 C 253.0625 85.789062 253.558594 85.378906 254.015625 84.921875 C 254.46875 84.464844 254.875 83.964844 255.230469 83.425781 C 255.589844 82.890625 255.890625 82.320312 256.132812 81.722656 C 256.378906 81.125 256.5625 80.511719 256.6875 79.878906 C 256.8125 79.242188 256.871094 78.605469 256.871094 77.957031 C 256.871094 77.3125 256.804688 76.671875 256.679688 76.035156 C 256.550781 75.402344 256.363281 74.789062 256.113281 74.191406 C 255.867188 73.59375 255.5625 73.027344 255.199219 72.488281 C 254.839844 71.953125 254.429688 71.453125 253.972656 71 C 253.515625 70.542969 253.015625 70.132812 252.480469 69.777344 C 251.941406 69.417969 251.371094 69.113281 250.773438 68.867188 C 250.175781 68.621094 249.558594 68.4375 248.925781 68.3125 C 248.289062 68.1875 247.648438 68.125 247.003906 68.125 Z M 247.003906 68.160156 " fill-opacity="1" fill-rule="nonzero"/><path fill="#00a79d" d="M 253.488281 216.113281 L 240.542969 216.113281 C 239.742188 216.113281 238.949219 216.035156 238.164062 215.878906 C 237.378906 215.722656 236.617188 215.488281 235.875 215.183594 C 235.136719 214.875 234.433594 214.5 233.765625 214.054688 C 233.101562 213.609375 232.484375 213.105469 231.917969 212.539062 C 231.351562 211.972656 230.847656 211.355469 230.402344 210.691406 C 229.957031 210.023438 229.582031 209.320312 229.273438 208.582031 C 228.96875 207.839844 228.734375 207.078125 228.578125 206.292969 C 228.421875 205.507812 228.34375 204.714844 228.34375 203.914062 L 228.34375 184.617188 C 228.34375 184.328125 228.371094 184.042969 228.425781 183.761719 C 228.480469 183.476562 228.566406 183.199219 228.675781 182.933594 C 228.785156 182.667969 228.921875 182.414062 229.082031 182.171875 C 229.242188 181.929688 229.421875 181.710938 229.628906 181.503906 C 229.832031 181.300781 230.054688 181.117188 230.292969 180.957031 C 230.535156 180.796875 230.789062 180.660156 231.054688 180.550781 C 231.320312 180.4375 231.597656 180.355469 231.878906 180.296875 C 232.164062 180.242188 232.449219 180.214844 232.738281 180.214844 C 233.027344 180.214844 233.316406 180.242188 233.597656 180.296875 C 233.882812 180.355469 234.15625 180.4375 234.425781 180.550781 C 234.691406 180.660156 234.945312 180.796875 235.183594 180.957031 C 235.425781 181.117188 235.648438 181.300781 235.851562 181.503906 C 236.054688 181.710938 236.238281 181.929688 236.398438 182.171875 C 236.558594 182.414062 236.695312 182.667969 236.804688 182.933594 C 236.914062 183.199219 236.996094 183.476562 237.054688 183.761719 C 237.109375 184.042969 237.136719 184.328125 237.136719 184.617188 L 237.136719 203.914062 C 237.136719 204.363281 237.222656 204.792969 237.394531 205.207031 C 237.566406 205.621094 237.808594 205.988281 238.125 206.304688 C 238.445312 206.621094 238.808594 206.867188 239.222656 207.039062 C 239.636719 207.210938 240.070312 207.296875 240.519531 207.296875 L 253.488281 207.296875 C 253.9375 207.296875 254.367188 207.210938 254.78125 207.039062 C 255.195312 206.867188 255.5625 206.621094 255.878906 206.304688 C 256.195312 205.988281 256.441406 205.621094 256.613281 205.207031 C 256.785156 204.792969 256.871094 204.363281 256.871094 203.914062 L 256.871094 155.3125 C 256.855469 155.015625 256.875 154.722656 256.921875 154.429688 C 256.96875 154.136719 257.042969 153.851562 257.148438 153.574219 C 257.253906 153.296875 257.382812 153.03125 257.542969 152.78125 C 257.699219 152.527344 257.882812 152.296875 258.085938 152.082031 C 258.292969 151.867188 258.515625 151.675781 258.761719 151.507812 C 259.003906 151.335938 259.261719 151.195312 259.535156 151.078125 C 259.808594 150.960938 260.089844 150.871094 260.382812 150.8125 C 260.671875 150.753906 260.964844 150.722656 261.261719 150.722656 C 261.558594 150.722656 261.851562 150.753906 262.144531 150.8125 C 262.433594 150.871094 262.714844 150.960938 262.988281 151.078125 C 263.261719 151.195312 263.519531 151.335938 263.765625 151.507812 C 264.007812 151.675781 264.234375 151.867188 264.4375 152.082031 C 264.644531 152.296875 264.824219 152.527344 264.984375 152.78125 C 265.140625 153.03125 265.273438 153.296875 265.378906 153.574219 C 265.480469 153.851562 265.558594 154.136719 265.605469 154.429688 C 265.652344 154.722656 265.667969 155.015625 265.65625 155.3125 L 265.65625 203.914062 C 265.65625 204.710938 265.578125 205.503906 265.421875 206.289062 C 265.265625 207.074219 265.03125 207.835938 264.726562 208.574219 C 264.421875 209.3125 264.046875 210.015625 263.601562 210.679688 C 263.160156 211.34375 262.65625 211.960938 262.089844 212.527344 C 261.527344 213.09375 260.914062 213.597656 260.25 214.042969 C 259.585938 214.488281 258.882812 214.867188 258.144531 215.171875 C 257.40625 215.480469 256.648438 215.714844 255.863281 215.871094 C 255.078125 216.03125 254.289062 216.109375 253.488281 216.113281 Z M 253.488281 216.113281 " fill-opacity="1" fill-rule="nonzero"/><path fill="#00a79d" d="M 247.003906 216.113281 C 246.714844 216.113281 246.429688 216.085938 246.144531 216.03125 C 245.863281 215.976562 245.589844 215.890625 245.320312 215.78125 C 245.054688 215.671875 244.800781 215.539062 244.5625 215.378906 C 244.320312 215.21875 244.097656 215.035156 243.894531 214.832031 C 243.691406 214.628906 243.507812 214.40625 243.347656 214.167969 C 243.1875 213.925781 243.050781 213.671875 242.941406 213.40625 C 242.832031 213.140625 242.746094 212.867188 242.691406 212.582031 C 242.636719 212.300781 242.605469 212.015625 242.605469 211.726562 L 242.605469 170.296875 C 242.605469 170.007812 242.636719 169.722656 242.691406 169.4375 C 242.746094 169.15625 242.832031 168.878906 242.941406 168.613281 C 243.050781 168.347656 243.1875 168.09375 243.347656 167.851562 C 243.507812 167.613281 243.691406 167.390625 243.894531 167.1875 C 244.097656 166.984375 244.320312 166.800781 244.5625 166.640625 C 244.800781 166.480469 245.054688 166.34375 245.320312 166.234375 C 245.585938 166.125 245.863281 166.039062 246.144531 165.984375 C 246.429688 165.925781 246.714844 165.898438 247.003906 165.898438 C 247.292969 165.898438 247.578125 165.925781 247.859375 165.984375 C 248.144531 166.039062 248.417969 166.125 248.6875 166.234375 C 248.953125 166.34375 249.207031 166.480469 249.445312 166.640625 C 249.6875 166.800781 249.90625 166.984375 250.113281 167.1875 C 250.316406 167.390625 250.5 167.613281 250.660156 167.851562 C 250.820312 168.09375 250.953125 168.347656 251.066406 168.613281 C 251.175781 168.878906 251.257812 169.15625 251.316406 169.4375 C 251.371094 169.722656 251.398438 170.007812 251.398438 170.296875 L 251.398438 211.726562 C 251.398438 212.015625 251.371094 212.300781 251.316406 212.582031 C 251.257812 212.867188 251.175781 213.140625 251.066406 213.40625 C 250.953125 213.671875 250.820312 213.925781 250.660156 214.167969 C 250.5 214.40625 250.316406 214.628906 250.113281 214.832031 C 249.90625 215.035156 249.683594 215.21875 249.445312 215.378906 C 249.207031 215.539062 248.953125 215.671875 248.683594 215.78125 C 248.417969 215.890625 248.144531 215.976562 247.859375 216.03125 C 247.578125 216.085938 247.292969 216.113281 247.003906 216.113281 Z M 247.003906 216.113281 " fill-opacity="1" fill-rule="nonzero"/><path fill="#00a79d" d="M 287.511719 146.335938 L 286.378906 146.335938 C 285.65625 146.335938 284.941406 146.265625 284.234375 146.125 C 283.527344 145.980469 282.839844 145.773438 282.171875 145.496094 C 281.503906 145.222656 280.871094 144.882812 280.273438 144.480469 C 279.671875 144.082031 279.117188 143.625 278.605469 143.113281 C 278.097656 142.605469 277.640625 142.050781 277.238281 141.449219 C 276.839844 140.847656 276.5 140.214844 276.222656 139.550781 C 275.949219 138.882812 275.738281 138.195312 275.597656 137.488281 C 275.457031 136.777344 275.386719 136.066406 275.386719 135.34375 L 275.386719 114.28125 C 275.386719 113.273438 275.285156 112.273438 275.089844 111.28125 C 274.890625 110.292969 274.597656 109.332031 274.210938 108.398438 C 273.824219 107.464844 273.351562 106.578125 272.789062 105.742188 C 272.230469 104.902344 271.589844 104.125 270.878906 103.410156 C 270.164062 102.695312 269.386719 102.058594 268.546875 101.5 C 267.707031 100.9375 266.824219 100.464844 265.890625 100.078125 C 264.957031 99.691406 263.996094 99.398438 263.007812 99.199219 C 262.015625 99.003906 261.015625 98.902344 260.007812 98.902344 L 233.992188 98.902344 C 232.980469 98.902344 231.980469 99.003906 230.992188 99.199219 C 230 99.398438 229.039062 99.691406 228.109375 100.078125 C 227.175781 100.464844 226.289062 100.9375 225.449219 101.5 C 224.609375 102.058594 223.835938 102.695312 223.121094 103.410156 C 222.40625 104.125 221.769531 104.902344 221.207031 105.742188 C 220.648438 106.578125 220.171875 107.464844 219.785156 108.398438 C 219.398438 109.332031 219.105469 110.292969 218.910156 111.28125 C 218.710938 112.273438 218.613281 113.273438 218.609375 114.28125 L 218.609375 173.695312 C 219.214844 173.613281 219.804688 173.480469 220.386719 173.292969 C 220.964844 173.105469 221.523438 172.867188 222.058594 172.578125 C 222.597656 172.289062 223.101562 171.957031 223.578125 171.574219 C 224.054688 171.195312 224.496094 170.777344 224.894531 170.320312 C 225.296875 169.859375 225.652344 169.371094 225.964844 168.847656 C 226.277344 168.324219 226.542969 167.777344 226.757812 167.207031 C 226.96875 166.636719 227.132812 166.054688 227.242188 165.453125 C 227.351562 164.855469 227.40625 164.25 227.40625 163.640625 L 227.40625 114.28125 C 227.40625 113.847656 227.445312 113.421875 227.53125 112.996094 C 227.617188 112.570312 227.742188 112.160156 227.90625 111.761719 C 228.070312 111.359375 228.273438 110.980469 228.515625 110.621094 C 228.753906 110.261719 229.027344 109.929688 229.332031 109.625 C 229.640625 109.316406 229.972656 109.046875 230.332031 108.804688 C 230.691406 108.566406 231.070312 108.363281 231.46875 108.195312 C 231.871094 108.03125 232.28125 107.90625 232.707031 107.820312 C 233.128906 107.738281 233.558594 107.695312 233.992188 107.695312 L 260.007812 107.695312 C 260.441406 107.695312 260.867188 107.738281 261.292969 107.820312 C 261.714844 107.90625 262.128906 108.03125 262.527344 108.195312 C 262.925781 108.363281 263.308594 108.566406 263.667969 108.804688 C 264.027344 109.046875 264.359375 109.316406 264.664062 109.625 C 264.96875 109.929688 265.242188 110.261719 265.484375 110.621094 C 265.722656 110.980469 265.925781 111.359375 266.09375 111.761719 C 266.257812 112.160156 266.382812 112.570312 266.46875 112.996094 C 266.550781 113.421875 266.59375 113.847656 266.59375 114.28125 L 266.59375 135.34375 C 266.59375 135.992188 266.628906 136.636719 266.691406 137.28125 C 266.753906 137.925781 266.851562 138.566406 266.976562 139.199219 C 267.105469 139.835938 267.261719 140.464844 267.453125 141.082031 C 267.640625 141.703125 267.859375 142.3125 268.105469 142.910156 C 268.355469 143.507812 268.632812 144.09375 268.9375 144.664062 C 269.242188 145.234375 269.574219 145.789062 269.9375 146.328125 C 270.296875 146.867188 270.679688 147.386719 271.09375 147.886719 C 271.503906 148.386719 271.9375 148.867188 272.394531 149.324219 C 272.855469 149.785156 273.332031 150.21875 273.832031 150.628906 C 274.335938 151.039062 274.855469 151.425781 275.394531 151.785156 C 275.929688 152.144531 276.484375 152.476562 277.058594 152.785156 C 277.628906 153.089844 278.210938 153.367188 278.8125 153.613281 C 279.410156 153.863281 280.019531 154.082031 280.636719 154.269531 C 281.257812 154.457031 281.886719 154.617188 282.519531 154.742188 C 283.15625 154.871094 283.796875 154.964844 284.441406 155.03125 C 285.085938 155.09375 285.730469 155.125 286.378906 155.128906 L 287.511719 155.128906 Z M 287.511719 146.335938 " fill-opacity="1" fill-rule="nonzero"/><path fill="#00a79d" d="M 215.863281 8.625 C 206.53125 6.40625 197.070312 5.296875 187.476562 5.296875 C 177.882812 5.296875 168.417969 6.40625 159.085938 8.625 L 159.085938 16.144531 C 168.40625 13.792969 177.867188 12.617188 187.476562 12.617188 C 197.085938 12.617188 206.546875 13.792969 215.863281 16.144531 Z M 215.863281 8.625 " fill-opacity="1" fill-rule="nonzero"/><g fill="#00a79d" fill-opacity="1"><g transform="translate(82.781249, 272.424635)"><g><path d="M 11.4375 -11.28125 L 6.53125 -11.28125 L 6.53125 0 L 3 0 L 3 -27.890625 L 10.828125 -27.890625 C 13.554688 -27.890625 15.625 -27.175781 17.03125 -25.75 C 18.4375 -24.332031 19.140625 -22.25 19.140625 -19.5 C 19.140625 -17.78125 18.757812 -16.273438 18 -14.984375 C 17.238281 -13.703125 16.160156 -12.738281 14.765625 -12.09375 L 20.171875 -0.234375 L 20.171875 0 L 16.40625 0 Z M 6.53125 -14.296875 L 10.78125 -14.296875 C 12.25 -14.296875 13.421875 -14.765625 14.296875 -15.703125 C 15.171875 -16.648438 15.609375 -17.914062 15.609375 -19.5 C 15.609375 -23.070312 13.988281 -24.859375 10.75 -24.859375 L 6.53125 -24.859375 Z M 6.53125 -14.296875 "/></g></g></g><g fill="#00a79d" fill-opacity="1"><g transform="translate(103.605352, 272.424635)"><g><path d="M 16.375 -12.890625 L 6.515625 -12.890625 L 6.515625 -3 L 18.015625 -3 L 18.015625 0 L 3 0 L 3 -27.890625 L 17.8125 -27.890625 L 17.8125 -24.859375 L 6.515625 -24.859375 L 6.515625 -15.90625 L 16.375 -15.90625 Z M 16.375 -12.890625 "/></g></g></g><g fill="#00a79d" fill-opacity="1"><g transform="translate(123.088436, 272.424635)"><g><path d="M 15.1875 -7.046875 C 15.1875 -8.441406 14.8125 -9.507812 14.0625 -10.25 C 13.3125 -10.988281 11.953125 -11.707031 9.984375 -12.40625 C 8.015625 -13.113281 6.507812 -13.851562 5.46875 -14.625 C 4.425781 -15.394531 3.644531 -16.273438 3.125 -17.265625 C 2.613281 -18.253906 2.359375 -19.390625 2.359375 -20.671875 C 2.359375 -22.878906 3.09375 -24.695312 4.5625 -26.125 C 6.039062 -27.5625 7.972656 -28.28125 10.359375 -28.28125 C 11.992188 -28.28125 13.445312 -27.910156 14.71875 -27.171875 C 16 -26.441406 16.984375 -25.425781 17.671875 -24.125 C 18.367188 -22.820312 18.71875 -21.390625 18.71875 -19.828125 L 15.1875 -19.828125 C 15.1875 -21.554688 14.769531 -22.890625 13.9375 -23.828125 C 13.113281 -24.773438 11.921875 -25.25 10.359375 -25.25 C 8.941406 -25.25 7.84375 -24.851562 7.0625 -24.0625 C 6.289062 -23.269531 5.90625 -22.160156 5.90625 -20.734375 C 5.90625 -19.554688 6.320312 -18.570312 7.15625 -17.78125 C 8 -16.988281 9.304688 -16.28125 11.078125 -15.65625 C 13.816406 -14.75 15.773438 -13.628906 16.953125 -12.296875 C 18.140625 -10.972656 18.734375 -9.238281 18.734375 -7.09375 C 18.734375 -4.832031 18 -3.019531 16.53125 -1.65625 C 15.0625 -0.289062 13.0625 0.390625 10.53125 0.390625 C 8.914062 0.390625 7.421875 0.0351562 6.046875 -0.671875 C 4.671875 -1.390625 3.585938 -2.390625 2.796875 -3.671875 C 2.015625 -4.953125 1.625 -6.421875 1.625 -8.078125 L 5.15625 -8.078125 C 5.15625 -6.359375 5.632812 -5.019531 6.59375 -4.0625 C 7.5625 -3.101562 8.875 -2.625 10.53125 -2.625 C 12.082031 -2.625 13.242188 -3.019531 14.015625 -3.8125 C 14.796875 -4.601562 15.1875 -5.679688 15.1875 -7.046875 Z M 15.1875 -7.046875 "/></g></g></g><g fill="#00a79d" fill-opacity="1"><g transform="translate(143.414447, 272.424635)"><g><path d="M 15.1875 -7.046875 C 15.1875 -8.441406 14.8125 -9.507812 14.0625 -10.25 C 13.3125 -10.988281 11.953125 -11.707031 9.984375 -12.40625 C 8.015625 -13.113281 6.507812 -13.851562 5.46875 -14.625 C 4.425781 -15.394531 3.644531 -16.273438 3.125 -17.265625 C 2.613281 -18.253906 2.359375 -19.390625 2.359375 -20.671875 C 2.359375 -22.878906 3.09375 -24.695312 4.5625 -26.125 C 6.039062 -27.5625 7.972656 -28.28125 10.359375 -28.28125 C 11.992188 -28.28125 13.445312 -27.910156 14.71875 -27.171875 C 16 -26.441406 16.984375 -25.425781 17.671875 -24.125 C 18.367188 -22.820312 18.71875 -21.390625 18.71875 -19.828125 L 15.1875 -19.828125 C 15.1875 -21.554688 14.769531 -22.890625 13.9375 -23.828125 C 13.113281 -24.773438 11.921875 -25.25 10.359375 -25.25 C 8.941406 -25.25 7.84375 -24.851562 7.0625 -24.0625 C 6.289062 -23.269531 5.90625 -22.160156 5.90625 -20.734375 C 5.90625 -19.554688 6.320312 -18.570312 7.15625 -17.78125 C 8 -16.988281 9.304688 -16.28125 11.078125 -15.65625 C 13.816406 -14.75 15.773438 -13.628906 16.953125 -12.296875 C 18.140625 -10.972656 18.734375 -9.238281 18.734375 -7.09375 C 18.734375 -4.832031 18 -3.019531 16.53125 -1.65625 C 15.0625 -0.289062 13.0625 0.390625 10.53125 0.390625 C 8.914062 0.390625 7.421875 0.0351562 6.046875 -0.671875 C 4.671875 -1.390625 3.585938 -2.390625 2.796875 -3.671875 C 2.015625 -4.953125 1.625 -6.421875 1.625 -8.078125 L 5.15625 -8.078125 C 5.15625 -6.359375 5.632812 -5.019531 6.59375 -4.0625 C 7.5625 -3.101562 8.875 -2.625 10.53125 -2.625 C 12.082031 -2.625 13.242188 -3.019531 14.015625 -3.8125 C 14.796875 -4.601562 15.1875 -5.679688 15.1875 -7.046875 Z M 15.1875 -7.046875 "/></g></g></g><g fill="#00a79d" fill-opacity="1"><g transform="translate(163.740457, 272.424635)"><g><path d="M 21.15625 -11.5 C 21.15625 -7.6875 20.34375 -4.75 18.71875 -2.6875 C 17.09375 -0.632812 14.785156 0.390625 11.796875 0.390625 C 8.921875 0.390625 6.648438 -0.609375 4.984375 -2.609375 C 3.316406 -4.609375 2.453125 -7.4375 2.390625 -11.09375 L 2.390625 -16.34375 C 2.390625 -20.070312 3.210938 -22.992188 4.859375 -25.109375 C 6.515625 -27.222656 8.816406 -28.28125 11.765625 -28.28125 C 14.703125 -28.28125 16.988281 -27.265625 18.625 -25.234375 C 20.269531 -23.210938 21.113281 -20.328125 21.15625 -16.578125 Z M 17.640625 -16.375 C 17.640625 -19.332031 17.15625 -21.523438 16.1875 -22.953125 C 15.226562 -24.390625 13.753906 -25.109375 11.765625 -25.109375 C 9.835938 -25.109375 8.378906 -24.378906 7.390625 -22.921875 C 6.398438 -21.472656 5.894531 -19.332031 5.875 -16.5 L 5.875 -11.5 C 5.875 -8.644531 6.367188 -6.46875 7.359375 -4.96875 C 8.347656 -3.476562 9.828125 -2.734375 11.796875 -2.734375 C 13.765625 -2.734375 15.222656 -3.421875 16.171875 -4.796875 C 17.117188 -6.179688 17.609375 -8.300781 17.640625 -11.15625 Z M 17.640625 -16.375 "/></g></g></g><g fill="#00a79d" fill-opacity="1"><g transform="translate(187.30407, 272.424635)"><g><path d="M 19.640625 -27.890625 L 19.640625 -8.0625 C 19.609375 -5.414062 18.835938 -3.34375 17.328125 -1.84375 C 15.828125 -0.351562 13.726562 0.390625 11.03125 0.390625 C 8.269531 0.390625 6.160156 -0.335938 4.703125 -1.796875 C 3.253906 -3.265625 2.515625 -5.351562 2.484375 -8.0625 L 2.484375 -27.890625 L 5.984375 -27.890625 L 5.984375 -8.203125 C 5.984375 -6.328125 6.378906 -4.925781 7.171875 -4 C 7.972656 -3.070312 9.257812 -2.609375 11.03125 -2.609375 C 12.820312 -2.609375 14.113281 -3.070312 14.90625 -4 C 15.707031 -4.925781 16.109375 -6.328125 16.109375 -8.203125 L 16.109375 -27.890625 Z M 19.640625 -27.890625 "/></g></g></g><g fill="#00a79d" fill-opacity="1"><g transform="translate(209.33509, 272.424635)"><g><path d="M 11.4375 -11.28125 L 6.53125 -11.28125 L 6.53125 0 L 3 0 L 3 -27.890625 L 10.828125 -27.890625 C 13.554688 -27.890625 15.625 -27.175781 17.03125 -25.75 C 18.4375 -24.332031 19.140625 -22.25 19.140625 -19.5 C 19.140625 -17.78125 18.757812 -16.273438 18 -14.984375 C 17.238281 -13.703125 16.160156 -12.738281 14.765625 -12.09375 L 20.171875 -0.234375 L 20.171875 0 L 16.40625 0 Z M 6.53125 -14.296875 L 10.78125 -14.296875 C 12.25 -14.296875 13.421875 -14.765625 14.296875 -15.703125 C 15.171875 -16.648438 15.609375 -17.914062 15.609375 -19.5 C 15.609375 -23.070312 13.988281 -24.859375 10.75 -24.859375 L 6.53125 -24.859375 Z M 6.53125 -14.296875 "/></g></g></g><g fill="#00a79d" fill-opacity="1"><g transform="translate(230.159192, 272.424635)"><g><path d="M 20.5 -8.84375 C 20.34375 -5.863281 19.5 -3.578125 17.96875 -1.984375 C 16.445312 -0.398438 14.296875 0.390625 11.515625 0.390625 C 8.710938 0.390625 6.488281 -0.671875 4.84375 -2.796875 C 3.195312 -4.929688 2.375 -7.816406 2.375 -11.453125 L 2.375 -16.515625 C 2.375 -20.140625 3.21875 -23.003906 4.90625 -25.109375 C 6.601562 -27.222656 8.914062 -28.28125 11.84375 -28.28125 C 14.53125 -28.28125 16.613281 -27.46875 18.09375 -25.84375 C 19.570312 -24.226562 20.375 -21.921875 20.5 -18.921875 L 16.953125 -18.921875 C 16.796875 -21.203125 16.316406 -22.828125 15.515625 -23.796875 C 14.710938 -24.765625 13.488281 -25.25 11.84375 -25.25 C 9.9375 -25.25 8.472656 -24.503906 7.453125 -23.015625 C 6.429688 -21.523438 5.921875 -19.34375 5.921875 -16.46875 L 5.921875 -11.359375 C 5.921875 -8.535156 6.394531 -6.367188 7.34375 -4.859375 C 8.300781 -3.359375 9.691406 -2.609375 11.515625 -2.609375 C 13.335938 -2.609375 14.648438 -3.0625 15.453125 -3.96875 C 16.265625 -4.875 16.765625 -6.5 16.953125 -8.84375 Z M 20.5 -8.84375 "/></g></g></g><g fill="#00a79d" fill-opacity="1"><g transform="translate(252.400943, 272.424635)"><g><path d="M 16.375 -12.890625 L 6.515625 -12.890625 L 6.515625 -3 L 18.015625 -3 L 18.015625 0 L 3 0 L 3 -27.890625 L 17.8125 -27.890625 L 17.8125 -24.859375 L 6.515625 -24.859375 L 6.515625 -15.90625 L 16.375 -15.90625 Z M 16.375 -12.890625 "/></g></g></g><g fill="#00a79d" fill-opacity="1"><g transform="translate(271.884028, 272.424635)"><g><path d="M 15.1875 -7.046875 C 15.1875 -8.441406 14.8125 -9.507812 14.0625 -10.25 C 13.3125 -10.988281 11.953125 -11.707031 9.984375 -12.40625 C 8.015625 -13.113281 6.507812 -13.851562 5.46875 -14.625 C 4.425781 -15.394531 3.644531 -16.273438 3.125 -17.265625 C 2.613281 -18.253906 2.359375 -19.390625 2.359375 -20.671875 C 2.359375 -22.878906 3.09375 -24.695312 4.5625 -26.125 C 6.039062 -27.5625 7.972656 -28.28125 10.359375 -28.28125 C 11.992188 -28.28125 13.445312 -27.910156 14.71875 -27.171875 C 16 -26.441406 16.984375 -25.425781 17.671875 -24.125 C 18.367188 -22.820312 18.71875 -21.390625 18.71875 -19.828125 L 15.1875 -19.828125 C 15.1875 -21.554688 14.769531 -22.890625 13.9375 -23.828125 C 13.113281 -24.773438 11.921875 -25.25 10.359375 -25.25 C 8.941406 -25.25 7.84375 -24.851562 7.0625 -24.0625 C 6.289062 -23.269531 5.90625 -22.160156 5.90625 -20.734375 C 5.90625 -19.554688 6.320312 -18.570312 7.15625 -17.78125 C 8 -16.988281 9.304688 -16.28125 11.078125 -15.65625 C 13.816406 -14.75 15.773438 -13.628906 16.953125 -12.296875 C 18.140625 -10.972656 18.734375 -9.238281 18.734375 -7.09375 C 18.734375 -4.832031 18 -3.019531 16.53125 -1.65625 C 15.0625 -0.289062 13.0625 0.390625 10.53125 0.390625 C 8.914062 0.390625 7.421875 0.0351562 6.046875 -0.671875 C 4.671875 -1.390625 3.585938 -2.390625 2.796875 -3.671875 C 2.015625 -4.953125 1.625 -6.421875 1.625 -8.078125 L 5.15625 -8.078125 C 5.15625 -6.359375 5.632812 -5.019531 6.59375 -4.0625 C 7.5625 -3.101562 8.875 -2.625 10.53125 -2.625 C 12.082031 -2.625 13.242188 -3.019531 14.015625 -3.8125 C 14.796875 -4.601562 15.1875 -5.679688 15.1875 -7.046875 Z M 15.1875 -7.046875 "/></g></g></g><g fill="#00a79d" fill-opacity="1"><g transform="translate(47.238283, 327.174631)"><g><path d="M 11.4375 -11.28125 L 6.53125 -11.28125 L 6.53125 0 L 3 0 L 3 -27.890625 L 10.828125 -27.890625 C 13.554688 -27.890625 15.625 -27.175781 17.03125 -25.75 C 18.4375 -24.332031 19.140625 -22.25 19.140625 -19.5 C 19.140625 -17.78125 18.757812 -16.273438 18 -14.984375 C 17.238281 -13.703125 16.160156 -12.738281 14.765625 -12.09375 L 20.171875 -0.234375 L 20.171875 0 L 16.40625 0 Z M 6.53125 -14.296875 L 10.78125 -14.296875 C 12.25 -14.296875 13.421875 -14.765625 14.296875 -15.703125 C 15.171875 -16.648438 15.609375 -17.914062 15.609375 -19.5 C 15.609375 -23.070312 13.988281 -24.859375 10.75 -24.859375 L 6.53125 -24.859375 Z M 6.53125 -14.296875 "/></g></g></g><g fill="#00a79d" fill-opacity="1"><g transform="translate(68.062385, 327.174631)"><g><path d="M 16.375 -12.890625 L 6.515625 -12.890625 L 6.515625 -3 L 18.015625 -3 L 18.015625 0 L 3 0 L 3 -27.890625 L 17.8125 -27.890625 L 17.8125 -24.859375 L 6.515625 -24.859375 L 6.515625 -15.90625 L 16.375 -15.90625 Z M 16.375 -12.890625 "/></g></g></g><g fill="#00a79d" fill-opacity="1"><g transform="translate(87.54547, 327.174631)"><g><path d="M 6.53125 -3 L 17.46875 -3 L 17.46875 0 L 3 0 L 3 -27.890625 L 6.53125 -27.890625 Z M 6.53125 -3 "/></g></g></g><g fill="#00a79d" fill-opacity="1"><g transform="translate(106.185628, 327.174631)"><g><path d="M 16.015625 -7.28125 L 6.59375 -7.28125 L 4.421875 0 L 0.828125 0 L 9.8125 -27.890625 L 12.8125 -27.890625 L 21.8125 0 L 18.21875 0 Z M 7.515625 -10.3125 L 15.109375 -10.3125 L 11.296875 -22.984375 Z M 7.515625 -10.3125 "/></g></g></g><g fill="#00a79d" fill-opacity="1"><g transform="translate(128.79137, 327.174631)"><g><path d="M 19.3125 -24.859375 L 11.96875 -24.859375 L 11.96875 0 L 8.46875 0 L 8.46875 -24.859375 L 1.15625 -24.859375 L 1.15625 -27.890625 L 19.3125 -27.890625 Z M 19.3125 -24.859375 "/></g></g></g><g fill="#00a79d" fill-opacity="1"><g transform="translate(149.213167, 327.174631)"><g><path d="M 6.671875 0 L 3.15625 0 L 3.15625 -27.890625 L 6.671875 -27.890625 Z M 6.671875 0 "/></g></g></g><g fill="#00a79d" fill-opacity="1"><g transform="translate(159.021761, 327.174631)"><g><path d="M 21.15625 -11.5 C 21.15625 -7.6875 20.34375 -4.75 18.71875 -2.6875 C 17.09375 -0.632812 14.785156 0.390625 11.796875 0.390625 C 8.921875 0.390625 6.648438 -0.609375 4.984375 -2.609375 C 3.316406 -4.609375 2.453125 -7.4375 2.390625 -11.09375 L 2.390625 -16.34375 C 2.390625 -20.070312 3.210938 -22.992188 4.859375 -25.109375 C 6.515625 -27.222656 8.816406 -28.28125 11.765625 -28.28125 C 14.703125 -28.28125 16.988281 -27.265625 18.625 -25.234375 C 20.269531 -23.210938 21.113281 -20.328125 21.15625 -16.578125 Z M 17.640625 -16.375 C 17.640625 -19.332031 17.15625 -21.523438 16.1875 -22.953125 C 15.226562 -24.390625 13.753906 -25.109375 11.765625 -25.109375 C 9.835938 -25.109375 8.378906 -24.378906 7.390625 -22.921875 C 6.398438 -21.472656 5.894531 -19.332031 5.875 -16.5 L 5.875 -11.5 C 5.875 -8.644531 6.367188 -6.46875 7.359375 -4.96875 C 8.347656 -3.476562 9.828125 -2.734375 11.796875 -2.734375 C 13.765625 -2.734375 15.222656 -3.421875 16.171875 -4.796875 C 17.117188 -6.179688 17.609375 -8.300781 17.640625 -11.15625 Z M 17.640625 -16.375 "/></g></g></g><g fill="#00a79d" fill-opacity="1"><g transform="translate(182.585373, 327.174631)"><g><path d="M 21.21875 0 L 17.703125 0 L 6.53125 -21.5 L 6.53125 0 L 3 0 L 3 -27.890625 L 6.53125 -27.890625 L 17.734375 -6.296875 L 17.734375 -27.890625 L 21.21875 -27.890625 Z M 21.21875 0 "/></g></g></g><g fill="#00a79d" fill-opacity="1"><g transform="translate(206.876967, 327.174631)"><g><path d="M 21.21875 0 L 17.703125 0 L 6.53125 -21.5 L 6.53125 0 L 3 0 L 3 -27.890625 L 6.53125 -27.890625 L 17.734375 -6.296875 L 17.734375 -27.890625 L 21.21875 -27.890625 Z M 21.21875 0 "/></g></g></g><g fill="#00a79d" fill-opacity="1"><g transform="translate(231.168561, 327.174631)"><g><path d="M 16.375 -12.890625 L 6.515625 -12.890625 L 6.515625 -3 L 18.015625 -3 L 18.015625 0 L 3 0 L 3 -27.890625 L 17.8125 -27.890625 L 17.8125 -24.859375 L 6.515625 -24.859375 L 6.515625 -15.90625 L 16.375 -15.90625 Z M 16.375 -12.890625 "/></g></g></g><g fill="#00a79d" fill-opacity="1"><g transform="translate(250.651646, 327.174631)"><g><path d="M 6.53125 -3 L 17.46875 -3 L 17.46875 0 L 3 0 L 3 -27.890625 L 6.53125 -27.890625 Z M 6.53125 -3 "/></g></g></g><g fill="#00a79d" fill-opacity="1"><g transform="translate(269.291804, 327.174631)"><g><path d="M 6.53125 -3 L 17.46875 -3 L 17.46875 0 L 3 0 L 3 -27.890625 L 6.53125 -27.890625 Z M 6.53125 -3 "/></g></g></g><g fill="#00a79d" fill-opacity="1"><g transform="translate(287.931962, 327.174631)"><g><path d="M 16.375 -12.890625 L 6.515625 -12.890625 L 6.515625 -3 L 18.015625 -3 L 18.015625 0 L 3 0 L 3 -27.890625 L 17.8125 -27.890625 L 17.8125 -24.859375 L 6.515625 -24.859375 L 6.515625 -15.90625 L 16.375 -15.90625 Z M 16.375 -12.890625 "/></g></g></g><g fill="#00a79d" fill-opacity="1"><g transform="translate(307.415047, 327.174631)"><g><path d="M 15.1875 -7.046875 C 15.1875 -8.441406 14.8125 -9.507812 14.0625 -10.25 C 13.3125 -10.988281 11.953125 -11.707031 9.984375 -12.40625 C 8.015625 -13.113281 6.507812 -13.851562 5.46875 -14.625 C 4.425781 -15.394531 3.644531 -16.273438 3.125 -17.265625 C 2.613281 -18.253906 2.359375 -19.390625 2.359375 -20.671875 C 2.359375 -22.878906 3.09375 -24.695312 4.5625 -26.125 C 6.039062 -27.5625 7.972656 -28.28125 10.359375 -28.28125 C 11.992188 -28.28125 13.445312 -27.910156 14.71875 -27.171875 C 16 -26.441406 16.984375 -25.425781 17.671875 -24.125 C 18.367188 -22.820312 18.71875 -21.390625 18.71875 -19.828125 L 15.1875 -19.828125 C 15.1875 -21.554688 14.769531 -22.890625 13.9375 -23.828125 C 13.113281 -24.773438 11.921875 -25.25 10.359375 -25.25 C 8.941406 -25.25 7.84375 -24.851562 7.0625 -24.0625 C 6.289062 -23.269531 5.90625 -22.160156 5.90625 -20.734375 C 5.90625 -19.554688 6.320312 -18.570312 7.15625 -17.78125 C 8 -16.988281 9.304688 -16.28125 11.078125 -15.65625 C 13.816406 -14.75 15.773438 -13.628906 16.953125 -12.296875 C 18.140625 -10.972656 18.734375 -9.238281 18.734375 -7.09375 C 18.734375 -4.832031 18 -3.019531 16.53125 -1.65625 C 15.0625 -0.289062 13.0625 0.390625 10.53125 0.390625 C 8.914062 0.390625 7.421875 0.0351562 6.046875 -0.671875 C 4.671875 -1.390625 3.585938 -2.390625 2.796875 -3.671875 C 2.015625 -4.953125 1.625 -6.421875 1.625 -8.078125 L 5.15625 -8.078125 C 5.15625 -6.359375 5.632812 -5.019531 6.59375 -4.0625 C 7.5625 -3.101562 8.875 -2.625 10.53125 -2.625 C 12.082031 -2.625 13.242188 -3.019531 14.015625 -3.8125 C 14.796875 -4.601562 15.1875 -5.679688 15.1875 -7.046875 Z M 15.1875 -7.046875 "/></g></g></g></svg>