<svg xmlns="http://www.w3.org/2000/svg" xmlns:xlink="http://www.w3.org/1999/xlink" width="500" zoomAndPan="magnify" viewBox="0 0 375 374.999991" height="500" preserveAspectRatio="xMidYMid meet" version="1.0"><defs><clipPath id="a9c5082153"><path d="M 160 272 L 215 272 L 215 351.84375 L 160 351.84375 Z M 160 272 " clip-rule="nonzero"/></clipPath><clipPath id="1550d31d51"><path d="M 181 293 L 194 293 L 194 351.84375 L 181 351.84375 Z M 181 293 " clip-rule="nonzero"/></clipPath><clipPath id="2cbbad157e"><path d="M 8.582031 30 L 143 30 L 143 241 L 8.582031 241 Z M 8.582031 30 " clip-rule="nonzero"/></clipPath><clipPath id="e4772d7ddb"><path d="M 232 30 L 366.332031 30 L 366.332031 241 L 232 241 Z M 232 30 " clip-rule="nonzero"/></clipPath></defs><g clip-path="url(#a9c5082153)"><path fill="#00a79d" d="M 196.808594 351.667969 L 178.128906 351.667969 C 177.550781 351.667969 176.972656 351.636719 176.398438 351.578125 C 175.824219 351.519531 175.253906 351.4375 174.6875 351.320312 C 174.121094 351.207031 173.5625 351.066406 173.007812 350.898438 C 172.457031 350.730469 171.914062 350.535156 171.378906 350.3125 C 170.84375 350.09375 170.324219 349.84375 169.816406 349.574219 C 169.304688 349.300781 168.8125 349.003906 168.332031 348.679688 C 167.851562 348.359375 167.386719 348.015625 166.941406 347.648438 C 166.492188 347.28125 166.066406 346.894531 165.65625 346.488281 C 165.25 346.078125 164.863281 345.652344 164.496094 345.203125 C 164.128906 344.757812 163.785156 344.292969 163.464844 343.8125 C 163.140625 343.332031 162.84375 342.839844 162.570312 342.328125 C 162.300781 341.820312 162.050781 341.300781 161.832031 340.765625 C 161.609375 340.230469 161.414062 339.6875 161.246094 339.136719 C 161.078125 338.582031 160.9375 338.023438 160.824219 337.457031 C 160.707031 336.890625 160.621094 336.320312 160.566406 335.746094 C 160.507812 335.171875 160.476562 334.59375 160.476562 334.015625 L 160.476562 278.53125 C 160.476562 278.113281 160.519531 277.699219 160.597656 277.289062 C 160.679688 276.878906 160.800781 276.484375 160.960938 276.097656 C 161.121094 275.710938 161.316406 275.34375 161.550781 274.996094 C 161.78125 274.648438 162.042969 274.328125 162.339844 274.035156 C 162.636719 273.738281 162.957031 273.472656 163.304688 273.242188 C 163.652344 273.011719 164.019531 272.8125 164.402344 272.65625 C 164.789062 272.496094 165.1875 272.375 165.597656 272.292969 C 166.007812 272.210938 166.421875 272.171875 166.835938 272.171875 C 167.253906 272.171875 167.667969 272.210938 168.078125 272.292969 C 168.488281 272.375 168.886719 272.496094 169.273438 272.65625 C 169.65625 272.8125 170.023438 273.011719 170.371094 273.242188 C 170.71875 273.472656 171.039062 273.738281 171.335938 274.035156 C 171.628906 274.328125 171.894531 274.648438 172.125 274.996094 C 172.359375 275.34375 172.554688 275.710938 172.714844 276.097656 C 172.875 276.484375 172.996094 276.878906 173.078125 277.289062 C 173.15625 277.699219 173.199219 278.113281 173.199219 278.53125 L 173.199219 334.015625 C 173.199219 334.335938 173.230469 334.65625 173.292969 334.972656 C 173.355469 335.285156 173.449219 335.59375 173.570312 335.890625 C 173.695312 336.1875 173.84375 336.46875 174.023438 336.734375 C 174.203125 337 174.40625 337.25 174.632812 337.476562 C 174.859375 337.703125 175.105469 337.90625 175.375 338.085938 C 175.640625 338.261719 175.921875 338.414062 176.21875 338.535156 C 176.515625 338.660156 176.820312 338.753906 177.136719 338.816406 C 177.453125 338.878906 177.769531 338.910156 178.089844 338.910156 L 196.769531 338.910156 C 197.089844 338.910156 197.410156 338.878906 197.722656 338.816406 C 198.039062 338.753906 198.34375 338.660156 198.640625 338.535156 C 198.9375 338.414062 199.222656 338.261719 199.488281 338.085938 C 199.753906 337.90625 200.003906 337.703125 200.230469 337.476562 C 200.457031 337.25 200.660156 337 200.839844 336.734375 C 201.015625 336.46875 201.167969 336.1875 201.289062 335.890625 C 201.414062 335.59375 201.507812 335.285156 201.570312 334.972656 C 201.632812 334.65625 201.664062 334.335938 201.664062 334.015625 L 201.664062 278.53125 C 201.664062 278.113281 201.703125 277.699219 201.785156 277.289062 C 201.867188 276.878906 201.988281 276.484375 202.148438 276.097656 C 202.308594 275.710938 202.503906 275.34375 202.734375 274.996094 C 202.96875 274.648438 203.230469 274.328125 203.527344 274.035156 C 203.820312 273.738281 204.140625 273.472656 204.488281 273.242188 C 204.835938 273.011719 205.203125 272.8125 205.589844 272.65625 C 205.976562 272.496094 206.375 272.375 206.78125 272.292969 C 207.191406 272.210938 207.605469 272.171875 208.023438 272.171875 C 208.441406 272.171875 208.855469 272.210938 209.265625 272.292969 C 209.675781 272.375 210.070312 272.496094 210.457031 272.65625 C 210.84375 272.8125 211.210938 273.011719 211.558594 273.242188 C 211.90625 273.472656 212.226562 273.738281 212.519531 274.035156 C 212.816406 274.328125 213.082031 274.648438 213.3125 274.996094 C 213.542969 275.34375 213.742188 275.710938 213.898438 276.097656 C 214.058594 276.484375 214.179688 276.878906 214.261719 277.289062 C 214.34375 277.699219 214.382812 278.113281 214.382812 278.53125 L 214.382812 334.015625 C 214.382812 334.59375 214.355469 335.167969 214.296875 335.742188 C 214.238281 336.3125 214.152344 336.882812 214.042969 337.449219 C 213.929688 338.011719 213.789062 338.570312 213.621094 339.121094 C 213.453125 339.675781 213.257812 340.214844 213.039062 340.75 C 212.816406 341.28125 212.570312 341.800781 212.300781 342.308594 C 212.027344 342.816406 211.734375 343.3125 211.414062 343.792969 C 211.09375 344.269531 210.75 344.734375 210.386719 345.179688 C 210.023438 345.625 209.636719 346.054688 209.230469 346.460938 C 208.824219 346.871094 208.398438 347.257812 207.953125 347.625 C 207.507812 347.992188 207.046875 348.335938 206.570312 348.65625 C 206.089844 348.976562 205.597656 349.273438 205.089844 349.546875 C 204.585938 349.824219 204.066406 350.070312 203.535156 350.292969 C 203 350.515625 202.460938 350.710938 201.910156 350.882812 C 201.359375 351.050781 200.800781 351.195312 200.238281 351.308594 C 199.671875 351.425781 199.105469 351.511719 198.53125 351.574219 C 197.957031 351.632812 197.382812 351.664062 196.808594 351.667969 Z M 196.808594 351.667969 " fill-opacity="1" fill-rule="nonzero"/></g><g clip-path="url(#1550d31d51)"><path fill="#00a79d" d="M 187.472656 351.667969 C 187.054688 351.667969 186.640625 351.625 186.234375 351.546875 C 185.824219 351.464844 185.425781 351.34375 185.039062 351.183594 C 184.652344 351.023438 184.285156 350.828125 183.941406 350.59375 C 183.59375 350.363281 183.269531 350.101562 182.976562 349.804688 C 182.679688 349.507812 182.417969 349.1875 182.183594 348.839844 C 181.953125 348.492188 181.757812 348.125 181.597656 347.742188 C 181.4375 347.355469 181.316406 346.957031 181.234375 346.546875 C 181.152344 346.136719 181.113281 345.722656 181.113281 345.308594 L 181.113281 300.253906 C 181.113281 299.835938 181.152344 299.421875 181.234375 299.011719 C 181.316406 298.601562 181.433594 298.203125 181.59375 297.820312 C 181.753906 297.433594 181.949219 297.066406 182.183594 296.71875 C 182.414062 296.371094 182.675781 296.046875 182.972656 295.753906 C 183.269531 295.457031 183.589844 295.191406 183.9375 294.960938 C 184.285156 294.726562 184.652344 294.53125 185.039062 294.371094 C 185.421875 294.210938 185.820312 294.089844 186.230469 294.007812 C 186.640625 293.925781 187.054688 293.886719 187.472656 293.886719 C 187.890625 293.886719 188.304688 293.925781 188.714844 294.007812 C 189.125 294.089844 189.523438 294.210938 189.910156 294.371094 C 190.296875 294.53125 190.664062 294.726562 191.011719 294.960938 C 191.359375 295.191406 191.679688 295.457031 191.972656 295.753906 C 192.269531 296.046875 192.535156 296.371094 192.765625 296.71875 C 192.996094 297.066406 193.191406 297.433594 193.351562 297.820312 C 193.511719 298.203125 193.632812 298.601562 193.714844 299.011719 C 193.792969 299.421875 193.835938 299.835938 193.835938 300.253906 L 193.835938 345.308594 C 193.835938 345.722656 193.792969 346.136719 193.710938 346.546875 C 193.628906 346.957031 193.511719 347.355469 193.351562 347.742188 C 193.191406 348.125 192.996094 348.492188 192.761719 348.839844 C 192.53125 349.1875 192.265625 349.507812 191.972656 349.804688 C 191.675781 350.101562 191.355469 350.363281 191.007812 350.59375 C 190.660156 350.828125 190.292969 351.023438 189.90625 351.183594 C 189.523438 351.34375 189.125 351.464844 188.714844 351.546875 C 188.304688 351.625 187.890625 351.667969 187.472656 351.667969 Z M 187.472656 351.667969 " fill-opacity="1" fill-rule="nonzero"/></g><path fill="#00a79d" d="M 228.535156 216.171875 L 228.535156 209.640625 C 228.535156 208.910156 228.5 208.183594 228.425781 207.457031 C 228.355469 206.734375 228.25 206.015625 228.105469 205.300781 C 227.960938 204.585938 227.785156 203.878906 227.574219 203.183594 C 227.363281 202.484375 227.117188 201.800781 226.835938 201.125 C 226.558594 200.453125 226.246094 199.796875 225.902344 199.152344 C 225.558594 198.511719 225.183594 197.886719 224.78125 197.28125 C 224.375 196.675781 223.941406 196.089844 223.480469 195.527344 C 223.015625 194.964844 222.527344 194.425781 222.015625 193.910156 C 221.5 193.394531 220.960938 192.90625 220.394531 192.441406 C 219.832031 191.980469 219.25 191.546875 218.644531 191.140625 C 218.039062 190.734375 217.414062 190.359375 216.773438 190.015625 C 216.128906 189.671875 215.472656 189.359375 214.796875 189.082031 C 214.125 188.800781 213.441406 188.554688 212.742188 188.34375 C 212.046875 188.132812 211.339844 187.953125 210.625 187.8125 C 209.910156 187.667969 209.191406 187.558594 208.46875 187.488281 C 207.742188 187.414062 207.015625 187.378906 206.285156 187.375 L 168.660156 187.375 C 167.929688 187.378906 167.203125 187.414062 166.480469 187.484375 C 165.753906 187.558594 165.035156 187.664062 164.320312 187.808594 C 163.605469 187.953125 162.898438 188.128906 162.199219 188.339844 C 161.503906 188.554688 160.816406 188.796875 160.144531 189.078125 C 159.472656 189.355469 158.8125 189.667969 158.171875 190.011719 C 157.527344 190.355469 156.902344 190.730469 156.296875 191.136719 C 155.691406 191.542969 155.105469 191.976562 154.542969 192.4375 C 153.980469 192.898438 153.441406 193.390625 152.925781 193.90625 C 152.410156 194.417969 151.921875 194.960938 151.457031 195.523438 C 150.996094 196.085938 150.5625 196.671875 150.15625 197.277344 C 149.753906 197.882812 149.378906 198.507812 149.035156 199.148438 C 148.691406 199.792969 148.378906 200.449219 148.097656 201.125 C 147.820312 201.796875 147.574219 202.480469 147.363281 203.179688 C 147.148438 203.875 146.972656 204.582031 146.828125 205.296875 C 146.6875 206.011719 146.578125 206.734375 146.507812 207.457031 C 146.433594 208.183594 146.398438 208.910156 146.398438 209.640625 L 146.398438 268.574219 C 147.269531 268.457031 148.125 268.261719 148.964844 267.992188 C 149.804688 267.71875 150.609375 267.375 151.386719 266.957031 C 152.164062 266.539062 152.894531 266.058594 153.585938 265.507812 C 154.273438 264.960938 154.910156 264.355469 155.488281 263.691406 C 156.070312 263.027344 156.585938 262.316406 157.039062 261.5625 C 157.488281 260.804688 157.871094 260.015625 158.179688 259.191406 C 158.492188 258.363281 158.726562 257.519531 158.882812 256.652344 C 159.039062 255.785156 159.117188 254.910156 159.121094 254.03125 L 159.121094 209.640625 C 159.121094 209.011719 159.183594 208.394531 159.304688 207.777344 C 159.425781 207.164062 159.609375 206.570312 159.847656 205.988281 C 160.089844 205.410156 160.382812 204.863281 160.730469 204.339844 C 161.078125 203.820312 161.472656 203.339844 161.917969 202.894531 C 162.359375 202.453125 162.84375 202.058594 163.363281 201.710938 C 163.882812 201.363281 164.433594 201.066406 165.011719 200.828125 C 165.589844 200.585938 166.1875 200.40625 166.800781 200.285156 C 167.414062 200.160156 168.035156 200.097656 168.660156 200.097656 L 206.285156 200.097656 C 206.914062 200.097656 207.53125 200.160156 208.148438 200.285156 C 208.761719 200.40625 209.359375 200.585938 209.9375 200.828125 C 210.515625 201.066406 211.0625 201.363281 211.585938 201.710938 C 212.105469 202.058594 212.585938 202.453125 213.03125 202.894531 C 213.472656 203.339844 213.867188 203.820312 214.214844 204.339844 C 214.5625 204.863281 214.859375 205.410156 215.097656 205.988281 C 215.339844 206.570312 215.519531 207.164062 215.640625 207.777344 C 215.765625 208.394531 215.828125 209.011719 215.828125 209.640625 L 215.828125 254.03125 C 215.828125 254.910156 215.90625 255.785156 216.0625 256.652344 C 216.222656 257.515625 216.453125 258.363281 216.765625 259.1875 C 217.074219 260.011719 217.453125 260.800781 217.90625 261.558594 C 218.359375 262.3125 218.875 263.023438 219.453125 263.6875 C 220.03125 264.351562 220.667969 264.957031 221.355469 265.503906 C 222.042969 266.054688 222.777344 266.539062 223.550781 266.953125 C 224.328125 267.371094 225.132812 267.714844 225.972656 267.988281 C 226.808594 268.261719 227.664062 268.457031 228.535156 268.574219 Z M 228.535156 216.171875 " fill-opacity="1" fill-rule="nonzero"/><path fill="#00a79d" d="M 187.472656 183.742188 C 186.59375 183.742188 185.714844 183.699219 184.835938 183.613281 C 183.957031 183.527344 183.089844 183.398438 182.222656 183.226562 C 181.359375 183.054688 180.503906 182.839844 179.660156 182.585938 C 178.816406 182.328125 177.988281 182.03125 177.175781 181.695312 C 176.359375 181.359375 175.566406 180.980469 174.789062 180.566406 C 174.011719 180.152344 173.253906 179.699219 172.523438 179.207031 C 171.789062 178.71875 171.082031 178.195312 170.402344 177.636719 C 169.71875 177.074219 169.066406 176.484375 168.445312 175.863281 C 167.820312 175.238281 167.230469 174.585938 166.671875 173.90625 C 166.113281 173.222656 165.585938 172.515625 165.097656 171.785156 C 164.609375 171.050781 164.15625 170.296875 163.742188 169.519531 C 163.324219 168.742188 162.949219 167.945312 162.609375 167.132812 C 162.273438 166.316406 161.976562 165.488281 161.722656 164.644531 C 161.464844 163.800781 161.25 162.949219 161.078125 162.082031 C 160.90625 161.21875 160.777344 160.347656 160.691406 159.46875 C 160.605469 158.59375 160.5625 157.714844 160.5625 156.832031 C 160.5625 155.953125 160.605469 155.070312 160.691406 154.195312 C 160.777344 153.316406 160.90625 152.445312 161.078125 151.582031 C 161.25 150.71875 161.464844 149.863281 161.722656 149.019531 C 161.976562 148.175781 162.273438 147.347656 162.609375 146.535156 C 162.949219 145.71875 163.324219 144.925781 163.742188 144.148438 C 164.15625 143.371094 164.609375 142.613281 165.097656 141.882812 C 165.585938 141.148438 166.113281 140.441406 166.671875 139.761719 C 167.230469 139.078125 167.820312 138.425781 168.445312 137.804688 C 169.066406 137.179688 169.71875 136.589844 170.402344 136.03125 C 171.082031 135.472656 171.789062 134.945312 172.523438 134.457031 C 173.253906 133.96875 174.011719 133.515625 174.789062 133.097656 C 175.566406 132.683594 176.359375 132.308594 177.175781 131.96875 C 177.988281 131.632812 178.816406 131.335938 179.660156 131.082031 C 180.503906 130.824219 181.359375 130.609375 182.222656 130.4375 C 183.089844 130.265625 183.957031 130.136719 184.835938 130.050781 C 185.714844 129.964844 186.59375 129.921875 187.472656 129.921875 C 188.355469 129.921875 189.234375 129.964844 190.109375 130.050781 C 190.988281 130.136719 191.859375 130.265625 192.722656 130.4375 C 193.589844 130.609375 194.441406 130.824219 195.285156 131.082031 C 196.128906 131.335938 196.957031 131.632812 197.773438 131.96875 C 198.585938 132.308594 199.382812 132.683594 200.160156 133.097656 C 200.9375 133.515625 201.691406 133.96875 202.425781 134.457031 C 203.15625 134.945312 203.863281 135.472656 204.546875 136.03125 C 205.226562 136.589844 205.878906 137.179688 206.503906 137.804688 C 207.125 138.425781 207.71875 139.078125 208.277344 139.761719 C 208.835938 140.441406 209.359375 141.148438 209.847656 141.882812 C 210.339844 142.613281 210.792969 143.371094 211.207031 144.148438 C 211.621094 144.925781 212 145.71875 212.335938 146.535156 C 212.671875 147.347656 212.96875 148.175781 213.226562 149.019531 C 213.480469 149.863281 213.695312 150.71875 213.867188 151.582031 C 214.039062 152.445312 214.167969 153.316406 214.253906 154.195312 C 214.339844 155.070312 214.382812 155.953125 214.382812 156.832031 C 214.382812 157.714844 214.339844 158.59375 214.253906 159.46875 C 214.167969 160.347656 214.039062 161.21875 213.867188 162.082031 C 213.695312 162.949219 213.480469 163.800781 213.226562 164.644531 C 212.96875 165.488281 212.671875 166.316406 212.335938 167.132812 C 212 167.945312 211.621094 168.742188 211.207031 169.519531 C 210.792969 170.296875 210.339844 171.050781 209.847656 171.785156 C 209.359375 172.515625 208.835938 173.222656 208.277344 173.90625 C 207.71875 174.585938 207.125 175.238281 206.503906 175.863281 C 205.878906 176.484375 205.226562 177.074219 204.546875 177.636719 C 203.863281 178.195312 203.15625 178.71875 202.425781 179.207031 C 201.691406 179.699219 200.9375 180.152344 200.160156 180.566406 C 199.382812 180.980469 198.585938 181.359375 197.773438 181.695312 C 196.957031 182.03125 196.128906 182.328125 195.285156 182.585938 C 194.441406 182.839844 193.589844 183.054688 192.722656 183.226562 C 191.859375 183.398438 190.988281 183.527344 190.109375 183.613281 C 189.234375 183.699219 188.355469 183.742188 187.472656 183.742188 Z M 187.472656 142.582031 C 186.539062 142.582031 185.613281 142.671875 184.695312 142.851562 C 183.78125 143.035156 182.890625 143.304688 182.027344 143.660156 C 181.164062 144.019531 180.34375 144.457031 179.566406 144.976562 C 178.789062 145.492188 178.070312 146.082031 177.40625 146.742188 C 176.746094 147.402344 176.15625 148.121094 175.636719 148.898438 C 175.117188 149.675781 174.679688 150.496094 174.320312 151.359375 C 173.960938 152.222656 173.691406 153.113281 173.507812 154.027344 C 173.328125 154.945312 173.234375 155.871094 173.234375 156.804688 C 173.234375 157.738281 173.324219 158.664062 173.507812 159.582031 C 173.691406 160.496094 173.960938 161.386719 174.316406 162.25 C 174.675781 163.113281 175.113281 163.933594 175.632812 164.710938 C 176.152344 165.488281 176.742188 166.207031 177.402344 166.867188 C 178.0625 167.527344 178.78125 168.117188 179.558594 168.636719 C 180.335938 169.15625 181.15625 169.59375 182.019531 169.953125 C 182.882812 170.308594 183.773438 170.578125 184.6875 170.761719 C 185.605469 170.945312 186.53125 171.035156 187.464844 171.035156 C 188.398438 171.035156 189.324219 170.941406 190.242188 170.761719 C 191.15625 170.578125 192.046875 170.308594 192.910156 169.949219 C 193.773438 169.589844 194.59375 169.152344 195.371094 168.632812 C 196.148438 168.113281 196.867188 167.523438 197.527344 166.863281 C 198.1875 166.199219 198.777344 165.480469 199.296875 164.703125 C 199.8125 163.925781 200.25 163.105469 200.609375 162.242188 C 200.964844 161.378906 201.234375 160.488281 201.417969 159.574219 C 201.597656 158.65625 201.6875 157.730469 201.6875 156.796875 C 201.6875 155.863281 201.59375 154.941406 201.410156 154.023438 C 201.226562 153.109375 200.957031 152.222656 200.597656 151.359375 C 200.242188 150.5 199.804688 149.679688 199.285156 148.90625 C 198.765625 148.128906 198.175781 147.414062 197.515625 146.753906 C 196.859375 146.09375 196.140625 145.503906 195.363281 144.984375 C 194.589844 144.464844 193.769531 144.027344 192.910156 143.671875 C 192.046875 143.3125 191.160156 143.042969 190.246094 142.859375 C 189.332031 142.675781 188.40625 142.582031 187.472656 142.582031 Z M 187.472656 142.582031 " fill-opacity="1" fill-rule="nonzero"/><g clip-path="url(#2cbbad157e)"><path fill="#00a79d" d="M 142.433594 41.714844 L 142.433594 30.707031 C 65.738281 50.707031 8.96875 120.5625 8.96875 203.4375 C 8.96875 214.492188 9.972656 225.449219 11.992188 236.316406 L 12.785156 240.585938 L 37.433594 240.90625 L 37.566406 230.3125 L 21.664062 230.105469 C 20.253906 221.269531 19.546875 212.382812 19.550781 203.4375 C 19.5625 126.460938 71.660156 61.457031 142.433594 41.714844 Z M 142.433594 41.714844 " fill-opacity="1" fill-rule="nonzero"/></g><path fill="#00a79d" d="M 101.359375 157.039062 C 100.476562 157.039062 99.597656 156.996094 98.722656 156.910156 C 97.84375 156.824219 96.972656 156.695312 96.109375 156.523438 C 95.246094 156.351562 94.390625 156.136719 93.546875 155.882812 C 92.703125 155.625 91.875 155.328125 91.058594 154.992188 C 90.246094 154.65625 89.449219 154.277344 88.671875 153.863281 C 87.894531 153.449219 87.140625 152.996094 86.40625 152.503906 C 85.675781 152.015625 84.96875 151.492188 84.285156 150.933594 C 83.605469 150.375 82.953125 149.78125 82.328125 149.160156 C 81.707031 148.535156 81.117188 147.882812 80.554688 147.203125 C 79.996094 146.519531 79.472656 145.8125 78.984375 145.082031 C 78.492188 144.347656 78.039062 143.59375 77.625 142.816406 C 77.210938 142.039062 76.832031 141.242188 76.496094 140.429688 C 76.160156 139.613281 75.863281 138.785156 75.605469 137.941406 C 75.351562 137.097656 75.136719 136.246094 74.964844 135.378906 C 74.792969 134.515625 74.664062 133.644531 74.578125 132.769531 C 74.492188 131.890625 74.449219 131.011719 74.449219 130.128906 C 74.449219 129.25 74.492188 128.371094 74.578125 127.492188 C 74.664062 126.613281 74.792969 125.746094 74.964844 124.878906 C 75.136719 124.015625 75.351562 123.160156 75.605469 122.316406 C 75.863281 121.476562 76.160156 120.644531 76.496094 119.832031 C 76.832031 119.015625 77.210938 118.222656 77.625 117.445312 C 78.039062 116.667969 78.492188 115.910156 78.984375 115.179688 C 79.472656 114.445312 79.996094 113.738281 80.554688 113.058594 C 81.117188 112.375 81.707031 111.722656 82.328125 111.101562 C 82.953125 110.476562 83.605469 109.886719 84.285156 109.328125 C 84.96875 108.769531 85.675781 108.242188 86.40625 107.753906 C 87.140625 107.265625 87.894531 106.8125 88.671875 106.398438 C 89.449219 105.980469 90.246094 105.605469 91.058594 105.265625 C 91.875 104.929688 92.703125 104.632812 93.546875 104.378906 C 94.390625 104.121094 95.246094 103.90625 96.109375 103.734375 C 96.972656 103.5625 97.84375 103.433594 98.722656 103.347656 C 99.597656 103.261719 100.476562 103.21875 101.359375 103.21875 C 102.238281 103.21875 103.121094 103.261719 103.996094 103.347656 C 104.875 103.433594 105.746094 103.5625 106.609375 103.734375 C 107.472656 103.90625 108.328125 104.121094 109.171875 104.378906 C 110.015625 104.632812 110.84375 104.929688 111.65625 105.265625 C 112.472656 105.605469 113.265625 105.980469 114.042969 106.398438 C 114.820312 106.8125 115.578125 107.265625 116.308594 107.753906 C 117.042969 108.242188 117.75 108.769531 118.429688 109.328125 C 119.113281 109.886719 119.765625 110.476562 120.386719 111.101562 C 121.011719 111.722656 121.601562 112.375 122.160156 113.058594 C 122.71875 113.738281 123.246094 114.445312 123.734375 115.179688 C 124.222656 115.910156 124.675781 116.667969 125.09375 117.445312 C 125.507812 118.222656 125.882812 119.015625 126.222656 119.832031 C 126.558594 120.644531 126.855469 121.476562 127.109375 122.316406 C 127.367188 123.160156 127.582031 124.015625 127.753906 124.878906 C 127.925781 125.746094 128.054688 126.613281 128.140625 127.492188 C 128.226562 128.371094 128.269531 129.25 128.269531 130.128906 C 128.269531 131.011719 128.226562 131.890625 128.140625 132.769531 C 128.054688 133.644531 127.925781 134.515625 127.753906 135.378906 C 127.582031 136.246094 127.367188 137.097656 127.109375 137.941406 C 126.855469 138.785156 126.558594 139.613281 126.222656 140.429688 C 125.882812 141.242188 125.507812 142.039062 125.09375 142.816406 C 124.675781 143.59375 124.222656 144.347656 123.734375 145.082031 C 123.246094 145.8125 122.71875 146.519531 122.160156 147.203125 C 121.601562 147.882812 121.011719 148.535156 120.386719 149.160156 C 119.765625 149.78125 119.113281 150.375 118.429688 150.933594 C 117.75 151.492188 117.042969 152.015625 116.308594 152.503906 C 115.578125 152.996094 114.820312 153.449219 114.042969 153.863281 C 113.265625 154.277344 112.472656 154.65625 111.65625 154.992188 C 110.84375 155.328125 110.015625 155.625 109.171875 155.882812 C 108.328125 156.136719 107.472656 156.351562 106.609375 156.523438 C 105.746094 156.695312 104.875 156.824219 103.996094 156.910156 C 103.121094 156.996094 102.238281 157.039062 101.359375 157.039062 Z M 101.359375 115.878906 C 100.425781 115.878906 99.5 115.96875 98.582031 116.152344 C 97.664062 116.335938 96.773438 116.605469 95.910156 116.964844 C 95.046875 117.320312 94.226562 117.761719 93.449219 118.28125 C 92.671875 118.800781 91.953125 119.390625 91.292969 120.050781 C 90.632812 120.714844 90.042969 121.433594 89.523438 122.210938 C 89.007812 122.988281 88.566406 123.808594 88.210938 124.671875 C 87.855469 125.535156 87.585938 126.425781 87.402344 127.34375 C 87.222656 128.261719 87.132812 129.1875 87.132812 130.121094 C 87.132812 131.054688 87.226562 131.980469 87.410156 132.898438 C 87.59375 133.816406 87.863281 134.707031 88.222656 135.570312 C 88.582031 136.429688 89.023438 137.25 89.542969 138.027344 C 90.0625 138.804688 90.65625 139.523438 91.316406 140.183594 C 91.980469 140.84375 92.699219 141.429688 93.476562 141.949219 C 94.253906 142.464844 95.078125 142.902344 95.941406 143.257812 C 96.804688 143.617188 97.695312 143.882812 98.613281 144.0625 C 99.53125 144.246094 100.457031 144.332031 101.390625 144.332031 C 102.328125 144.328125 103.25 144.234375 104.167969 144.050781 C 105.085938 143.867188 105.972656 143.59375 106.835938 143.234375 C 107.699219 142.875 108.519531 142.433594 109.292969 141.914062 C 110.070312 141.390625 110.789062 140.796875 111.445312 140.136719 C 112.105469 139.472656 112.695312 138.753906 113.210938 137.972656 C 113.726562 137.195312 114.164062 136.371094 114.519531 135.507812 C 114.875 134.644531 115.140625 133.753906 115.320312 132.835938 C 115.5 131.917969 115.589844 130.992188 115.585938 130.054688 C 115.582031 129.121094 115.492188 128.199219 115.308594 127.28125 C 115.125 126.367188 114.851562 125.480469 114.496094 124.617188 C 114.136719 123.753906 113.699219 122.933594 113.179688 122.160156 C 112.660156 121.382812 112.070312 120.664062 111.410156 120.003906 C 110.75 119.34375 110.03125 118.753906 109.257812 118.234375 C 108.480469 117.714844 107.660156 117.277344 106.800781 116.917969 C 105.9375 116.5625 105.046875 116.292969 104.132812 116.109375 C 103.21875 115.925781 102.292969 115.832031 101.359375 115.832031 Z M 101.359375 115.878906 " fill-opacity="1" fill-rule="nonzero"/><path fill="#00a79d" d="M 110.703125 329.929688 L 92.027344 329.929688 C 91.449219 329.929688 90.871094 329.902344 90.296875 329.84375 C 89.71875 329.789062 89.148438 329.703125 88.582031 329.589844 C 88.015625 329.476562 87.453125 329.335938 86.902344 329.167969 C 86.347656 329 85.804688 328.804688 85.269531 328.585938 C 84.738281 328.363281 84.214844 328.117188 83.703125 327.84375 C 83.195312 327.570312 82.699219 327.273438 82.21875 326.953125 C 81.738281 326.632812 81.273438 326.289062 80.828125 325.921875 C 80.378906 325.554688 79.953125 325.167969 79.542969 324.757812 C 79.132812 324.347656 78.746094 323.921875 78.378906 323.476562 C 78.011719 323.027344 77.667969 322.566406 77.347656 322.085938 C 77.027344 321.605469 76.726562 321.109375 76.457031 320.597656 C 76.183594 320.089844 75.933594 319.566406 75.714844 319.035156 C 75.492188 318.5 75.296875 317.957031 75.128906 317.402344 C 74.960938 316.851562 74.820312 316.289062 74.707031 315.722656 C 74.59375 315.15625 74.507812 314.585938 74.449219 314.011719 C 74.390625 313.433594 74.363281 312.859375 74.363281 312.28125 L 74.363281 241.96875 C 74.363281 241.550781 74.402344 241.136719 74.484375 240.730469 C 74.566406 240.320312 74.6875 239.921875 74.847656 239.535156 C 75.007812 239.152344 75.203125 238.785156 75.4375 238.4375 C 75.667969 238.089844 75.933594 237.769531 76.226562 237.476562 C 76.523438 237.179688 76.84375 236.917969 77.191406 236.683594 C 77.539062 236.453125 77.90625 236.257812 78.289062 236.097656 C 78.675781 235.9375 79.074219 235.816406 79.484375 235.738281 C 79.890625 235.65625 80.304688 235.613281 80.722656 235.613281 C 81.140625 235.613281 81.554688 235.65625 81.964844 235.738281 C 82.371094 235.816406 82.769531 235.9375 83.15625 236.097656 C 83.542969 236.257812 83.90625 236.453125 84.253906 236.683594 C 84.601562 236.917969 84.921875 237.179688 85.21875 237.476562 C 85.515625 237.769531 85.777344 238.089844 86.007812 238.4375 C 86.242188 238.785156 86.4375 239.152344 86.597656 239.535156 C 86.757812 239.921875 86.878906 240.320312 86.960938 240.730469 C 87.042969 241.136719 87.082031 241.550781 87.082031 241.96875 L 87.082031 312.28125 C 87.082031 312.601562 87.113281 312.917969 87.179688 313.234375 C 87.242188 313.550781 87.332031 313.855469 87.457031 314.152344 C 87.578125 314.449219 87.730469 314.730469 87.910156 314.996094 C 88.085938 315.265625 88.289062 315.511719 88.515625 315.738281 C 88.742188 315.964844 88.992188 316.167969 89.257812 316.347656 C 89.527344 316.527344 89.808594 316.675781 90.105469 316.800781 C 90.402344 316.921875 90.707031 317.015625 91.023438 317.078125 C 91.335938 317.140625 91.65625 317.171875 91.976562 317.171875 L 110.703125 317.171875 C 111.027344 317.171875 111.34375 317.140625 111.660156 317.078125 C 111.972656 317.015625 112.28125 316.921875 112.578125 316.800781 C 112.875 316.675781 113.15625 316.527344 113.421875 316.347656 C 113.691406 316.167969 113.9375 315.964844 114.164062 315.738281 C 114.390625 315.511719 114.59375 315.265625 114.773438 314.996094 C 114.949219 314.730469 115.101562 314.449219 115.226562 314.152344 C 115.347656 313.855469 115.441406 313.550781 115.503906 313.234375 C 115.566406 312.917969 115.597656 312.601562 115.597656 312.28125 L 115.597656 284.367188 C 115.597656 283.949219 115.636719 283.535156 115.71875 283.125 C 115.800781 282.714844 115.921875 282.316406 116.082031 281.933594 C 116.242188 281.546875 116.4375 281.179688 116.667969 280.832031 C 116.902344 280.484375 117.164062 280.164062 117.460938 279.867188 C 117.753906 279.574219 118.078125 279.308594 118.425781 279.078125 C 118.769531 278.84375 119.136719 278.648438 119.523438 278.488281 C 119.910156 278.328125 120.308594 278.207031 120.71875 278.128906 C 121.125 278.046875 121.539062 278.003906 121.957031 278.003906 C 122.375 278.003906 122.789062 278.046875 123.199219 278.128906 C 123.609375 278.207031 124.007812 278.328125 124.390625 278.488281 C 124.777344 278.648438 125.144531 278.84375 125.492188 279.078125 C 125.839844 279.308594 126.160156 279.574219 126.457031 279.867188 C 126.75 280.164062 127.015625 280.484375 127.246094 280.832031 C 127.480469 281.179688 127.675781 281.546875 127.835938 281.933594 C 127.996094 282.316406 128.113281 282.714844 128.195312 283.125 C 128.277344 283.535156 128.320312 283.949219 128.320312 284.367188 L 128.320312 312.28125 C 128.316406 312.855469 128.289062 313.433594 128.230469 314.007812 C 128.175781 314.582031 128.089844 315.152344 127.976562 315.71875 C 127.863281 316.28125 127.722656 316.84375 127.554688 317.394531 C 127.386719 317.945312 127.191406 318.488281 126.972656 319.023438 C 126.75 319.554688 126.503906 320.078125 126.234375 320.585938 C 125.960938 321.09375 125.664062 321.589844 125.34375 322.070312 C 125.023438 322.550781 124.679688 323.011719 124.316406 323.457031 C 123.949219 323.90625 123.5625 324.332031 123.15625 324.742188 C 122.746094 325.148438 122.320312 325.535156 121.875 325.902344 C 121.429688 326.269531 120.964844 326.613281 120.488281 326.9375 C 120.007812 327.257812 119.515625 327.554688 119.003906 327.828125 C 118.496094 328.101562 117.976562 328.347656 117.445312 328.570312 C 116.910156 328.792969 116.367188 328.988281 115.816406 329.15625 C 115.265625 329.324219 114.707031 329.46875 114.140625 329.582031 C 113.574219 329.695312 113.003906 329.78125 112.429688 329.839844 C 111.855469 329.898438 111.28125 329.929688 110.703125 329.929688 Z M 110.703125 329.929688 " fill-opacity="1" fill-rule="nonzero"/><path fill="#00a79d" d="M 101.359375 329.929688 C 100.941406 329.929688 100.527344 329.890625 100.117188 329.8125 C 99.710938 329.730469 99.3125 329.609375 98.925781 329.449219 C 98.539062 329.292969 98.171875 329.097656 97.824219 328.863281 C 97.480469 328.632812 97.15625 328.371094 96.863281 328.074219 C 96.566406 327.78125 96.300781 327.460938 96.070312 327.113281 C 95.839844 326.765625 95.640625 326.398438 95.484375 326.015625 C 95.324219 325.628906 95.203125 325.230469 95.121094 324.824219 C 95.039062 324.414062 95 324 95 323.582031 L 95 263.644531 C 94.996094 263.226562 95.039062 262.8125 95.121094 262.402344 C 95.203125 261.992188 95.324219 261.597656 95.480469 261.210938 C 95.640625 260.824219 95.839844 260.457031 96.070312 260.109375 C 96.300781 259.761719 96.566406 259.441406 96.859375 259.148438 C 97.15625 258.851562 97.476562 258.585938 97.824219 258.355469 C 98.171875 258.125 98.539062 257.925781 98.925781 257.769531 C 99.308594 257.609375 99.707031 257.488281 100.117188 257.40625 C 100.527344 257.324219 100.941406 257.285156 101.359375 257.285156 C 101.777344 257.285156 102.191406 257.324219 102.601562 257.40625 C 103.007812 257.488281 103.40625 257.609375 103.792969 257.769531 C 104.179688 257.925781 104.546875 258.125 104.894531 258.355469 C 105.238281 258.585938 105.5625 258.851562 105.855469 259.148438 C 106.152344 259.441406 106.414062 259.761719 106.648438 260.109375 C 106.878906 260.457031 107.074219 260.824219 107.234375 261.210938 C 107.394531 261.597656 107.515625 261.992188 107.597656 262.402344 C 107.679688 262.8125 107.71875 263.226562 107.71875 263.644531 L 107.71875 323.582031 C 107.71875 324 107.679688 324.414062 107.597656 324.824219 C 107.515625 325.230469 107.394531 325.628906 107.234375 326.015625 C 107.074219 326.398438 106.878906 326.765625 106.648438 327.113281 C 106.414062 327.460938 106.152344 327.78125 105.855469 328.074219 C 105.558594 328.371094 105.238281 328.632812 104.890625 328.863281 C 104.542969 329.097656 104.179688 329.292969 103.792969 329.449219 C 103.40625 329.609375 103.007812 329.730469 102.597656 329.8125 C 102.191406 329.890625 101.777344 329.929688 101.359375 329.929688 Z M 101.359375 329.929688 " fill-opacity="1" fill-rule="nonzero"/><path fill="#00a79d" d="M 142.433594 254.03125 L 142.433594 182.605469 C 142.433594 181.878906 142.398438 181.152344 142.324219 180.425781 C 142.25 179.699219 142.144531 178.980469 142 178.265625 C 141.859375 177.550781 141.679688 176.847656 141.46875 176.148438 C 141.253906 175.453125 141.007812 174.765625 140.730469 174.09375 C 140.449219 173.421875 140.136719 172.761719 139.792969 172.121094 C 139.449219 171.480469 139.074219 170.855469 138.671875 170.25 C 138.265625 169.644531 137.832031 169.058594 137.371094 168.496094 C 136.90625 167.933594 136.417969 167.394531 135.902344 166.878906 C 135.386719 166.363281 134.847656 165.875 134.285156 165.414062 C 133.722656 164.949219 133.136719 164.515625 132.53125 164.113281 C 131.925781 163.707031 131.300781 163.332031 130.660156 162.988281 C 130.015625 162.644531 129.359375 162.335938 128.683594 162.054688 C 128.011719 161.777344 127.328125 161.53125 126.628906 161.320312 C 125.933594 161.105469 125.226562 160.929688 124.511719 160.789062 C 123.796875 160.644531 123.078125 160.539062 122.351562 160.464844 C 121.628906 160.394531 120.902344 160.355469 120.171875 160.355469 L 82.546875 160.355469 C 81.816406 160.359375 81.09375 160.398438 80.371094 160.46875 C 79.644531 160.542969 78.925781 160.652344 78.214844 160.796875 C 77.5 160.941406 76.796875 161.121094 76.101562 161.332031 C 75.40625 161.546875 74.722656 161.792969 74.050781 162.074219 C 73.378906 162.351562 72.722656 162.664062 72.082031 163.007812 C 71.441406 163.355469 70.820312 163.730469 70.214844 164.132812 C 69.613281 164.539062 69.027344 164.972656 68.46875 165.433594 C 67.90625 165.898438 67.367188 166.386719 66.855469 166.902344 C 66.339844 167.414062 65.851562 167.953125 65.390625 168.515625 C 64.929688 169.078125 64.5 169.664062 64.09375 170.269531 C 63.691406 170.875 63.316406 171.496094 62.976562 172.136719 C 62.632812 172.78125 62.320312 173.4375 62.042969 174.109375 C 61.765625 174.78125 61.519531 175.464844 61.308594 176.160156 C 61.097656 176.855469 60.917969 177.558594 60.777344 178.273438 C 60.632812 178.988281 60.527344 179.707031 60.453125 180.429688 C 60.382812 181.152344 60.34375 181.878906 60.34375 182.605469 L 60.34375 213.078125 C 60.34375 213.597656 60.320312 214.117188 60.269531 214.636719 C 60.214844 215.152344 60.140625 215.667969 60.039062 216.179688 C 59.9375 216.691406 59.8125 217.195312 59.660156 217.691406 C 59.507812 218.191406 59.332031 218.679688 59.132812 219.160156 C 58.933594 219.644531 58.710938 220.113281 58.464844 220.574219 C 58.222656 221.03125 57.953125 221.476562 57.664062 221.910156 C 57.375 222.34375 57.066406 222.761719 56.734375 223.164062 C 56.402344 223.566406 56.054688 223.953125 55.6875 224.320312 C 55.320312 224.6875 54.933594 225.039062 54.53125 225.367188 C 54.128906 225.699219 53.710938 226.007812 53.277344 226.296875 C 52.84375 226.585938 52.398438 226.855469 51.9375 227.101562 C 51.480469 227.347656 51.007812 227.570312 50.527344 227.769531 C 50.046875 227.96875 49.558594 228.140625 49.058594 228.292969 C 48.558594 228.445312 48.054688 228.570312 47.542969 228.671875 C 47.035156 228.773438 46.519531 228.851562 46 228.902344 C 45.484375 228.953125 44.964844 228.976562 44.441406 228.976562 L 42.753906 228.976562 L 42.753906 241.699219 L 44.441406 241.699219 C 45.378906 241.699219 46.3125 241.652344 47.246094 241.558594 C 48.179688 241.464844 49.105469 241.328125 50.023438 241.144531 C 50.941406 240.960938 51.847656 240.730469 52.746094 240.460938 C 53.640625 240.1875 54.523438 239.871094 55.386719 239.511719 C 56.253906 239.152344 57.097656 238.75 57.925781 238.308594 C 58.75 237.867188 59.554688 237.386719 60.332031 236.863281 C 61.113281 236.34375 61.863281 235.785156 62.585938 235.191406 C 63.3125 234.597656 64.003906 233.96875 64.667969 233.304688 C 65.328125 232.640625 65.957031 231.949219 66.550781 231.222656 C 67.148438 230.5 67.703125 229.75 68.226562 228.96875 C 68.746094 228.191406 69.226562 227.386719 69.667969 226.5625 C 70.109375 225.734375 70.511719 224.890625 70.871094 224.023438 C 71.226562 223.15625 71.542969 222.277344 71.816406 221.378906 C 72.089844 220.484375 72.316406 219.578125 72.5 218.65625 C 72.683594 217.738281 72.820312 216.8125 72.914062 215.878906 C 73.007812 214.949219 73.050781 214.011719 73.054688 213.078125 L 73.054688 182.605469 C 73.054688 181.980469 73.117188 181.359375 73.238281 180.746094 C 73.363281 180.132812 73.542969 179.535156 73.785156 178.957031 C 74.023438 178.378906 74.316406 177.832031 74.664062 177.3125 C 75.015625 176.789062 75.410156 176.308594 75.851562 175.867188 C 76.296875 175.425781 76.777344 175.03125 77.296875 174.683594 C 77.816406 174.335938 78.367188 174.042969 78.945312 173.800781 C 79.523438 173.5625 80.121094 173.382812 80.734375 173.261719 C 81.347656 173.136719 81.96875 173.078125 82.59375 173.078125 L 120.171875 173.078125 C 120.796875 173.078125 121.417969 173.136719 122.03125 173.261719 C 122.644531 173.382812 123.242188 173.5625 123.820312 173.800781 C 124.398438 174.042969 124.949219 174.335938 125.46875 174.683594 C 125.988281 175.03125 126.472656 175.425781 126.914062 175.867188 C 127.355469 176.308594 127.753906 176.789062 128.101562 177.3125 C 128.449219 177.832031 128.742188 178.378906 128.984375 178.957031 C 129.222656 179.535156 129.40625 180.132812 129.527344 180.746094 C 129.652344 181.359375 129.710938 181.980469 129.714844 182.605469 L 129.714844 254.03125 C 129.714844 254.910156 129.792969 255.785156 129.949219 256.652344 C 130.105469 257.519531 130.339844 258.363281 130.652344 259.191406 C 130.960938 260.015625 131.34375 260.804688 131.792969 261.5625 C 132.246094 262.316406 132.761719 263.027344 133.34375 263.691406 C 133.921875 264.355469 134.558594 264.960938 135.246094 265.507812 C 135.9375 266.058594 136.667969 266.539062 137.445312 266.957031 C 138.222656 267.375 139.027344 267.71875 139.867188 267.992188 C 140.707031 268.261719 141.5625 268.457031 142.433594 268.574219 Z M 142.433594 254.03125 " fill-opacity="1" fill-rule="nonzero"/><g clip-path="url(#e4772d7ddb)"><path fill="#00a79d" d="M 232.511719 30.695312 L 232.511719 41.703125 C 303.289062 61.457031 355.371094 126.460938 355.371094 203.4375 C 355.375 212.359375 354.679688 221.230469 353.28125 230.042969 L 336.792969 230.042969 L 336.792969 240.648438 L 362.1875 240.648438 L 362.992188 236.316406 C 365.007812 225.449219 366.015625 214.492188 366.015625 203.4375 C 365.976562 120.5625 309.207031 50.707031 232.511719 30.695312 Z M 232.511719 30.695312 " fill-opacity="1" fill-rule="nonzero"/></g><path fill="#00a79d" d="M 273.589844 157.039062 C 272.707031 157.039062 271.828125 156.996094 270.949219 156.910156 C 270.074219 156.824219 269.203125 156.695312 268.339844 156.523438 C 267.472656 156.351562 266.621094 156.136719 265.777344 155.882812 C 264.933594 155.625 264.105469 155.328125 263.289062 154.992188 C 262.476562 154.65625 261.679688 154.277344 260.902344 153.863281 C 260.125 153.449219 259.371094 152.996094 258.636719 152.503906 C 257.90625 152.015625 257.199219 151.492188 256.515625 150.933594 C 255.835938 150.375 255.183594 149.78125 254.558594 149.160156 C 253.9375 148.535156 253.34375 147.882812 252.785156 147.203125 C 252.226562 146.519531 251.703125 145.8125 251.210938 145.082031 C 250.722656 144.347656 250.269531 143.59375 249.855469 142.816406 C 249.441406 142.039062 249.0625 141.242188 248.726562 140.429688 C 248.386719 139.613281 248.09375 138.785156 247.835938 137.941406 C 247.582031 137.097656 247.367188 136.246094 247.195312 135.378906 C 247.023438 134.515625 246.894531 133.644531 246.808594 132.769531 C 246.71875 131.890625 246.675781 131.011719 246.675781 130.128906 C 246.675781 129.25 246.71875 128.371094 246.808594 127.492188 C 246.894531 126.613281 247.023438 125.746094 247.195312 124.878906 C 247.367188 124.015625 247.582031 123.160156 247.835938 122.316406 C 248.09375 121.476562 248.386719 120.644531 248.726562 119.832031 C 249.0625 119.015625 249.441406 118.222656 249.855469 117.445312 C 250.269531 116.667969 250.722656 115.910156 251.210938 115.179688 C 251.703125 114.445312 252.226562 113.738281 252.785156 113.058594 C 253.34375 112.375 253.9375 111.722656 254.558594 111.101562 C 255.183594 110.476562 255.835938 109.886719 256.515625 109.328125 C 257.199219 108.769531 257.90625 108.242188 258.636719 107.753906 C 259.371094 107.265625 260.125 106.8125 260.902344 106.398438 C 261.679688 105.980469 262.476562 105.605469 263.289062 105.265625 C 264.105469 104.929688 264.933594 104.632812 265.777344 104.378906 C 266.621094 104.121094 267.472656 103.90625 268.339844 103.734375 C 269.203125 103.5625 270.074219 103.433594 270.949219 103.347656 C 271.828125 103.261719 272.707031 103.21875 273.589844 103.21875 C 274.46875 103.21875 275.347656 103.261719 276.226562 103.347656 C 277.101562 103.433594 277.972656 103.5625 278.839844 103.734375 C 279.703125 103.90625 280.558594 104.121094 281.398438 104.378906 C 282.242188 104.632812 283.074219 104.929688 283.886719 105.265625 C 284.699219 105.605469 285.496094 105.980469 286.273438 106.398438 C 287.050781 106.8125 287.804688 107.265625 288.539062 107.753906 C 289.273438 108.242188 289.980469 108.769531 290.660156 109.328125 C 291.339844 109.886719 291.992188 110.476562 292.617188 111.101562 C 293.242188 111.722656 293.832031 112.375 294.390625 113.058594 C 294.949219 113.738281 295.472656 114.445312 295.964844 115.179688 C 296.453125 115.910156 296.90625 116.667969 297.320312 117.445312 C 297.738281 118.222656 298.113281 119.015625 298.449219 119.832031 C 298.789062 120.644531 299.085938 121.476562 299.339844 122.316406 C 299.597656 123.160156 299.808594 124.015625 299.980469 124.878906 C 300.152344 125.746094 300.28125 126.613281 300.371094 127.492188 C 300.457031 128.371094 300.5 129.25 300.5 130.128906 C 300.5 131.011719 300.457031 131.890625 300.371094 132.769531 C 300.28125 133.644531 300.152344 134.515625 299.980469 135.378906 C 299.808594 136.246094 299.597656 137.097656 299.339844 137.941406 C 299.085938 138.785156 298.789062 139.613281 298.449219 140.429688 C 298.113281 141.242188 297.738281 142.039062 297.320312 142.816406 C 296.90625 143.59375 296.453125 144.347656 295.964844 145.082031 C 295.472656 145.8125 294.949219 146.519531 294.390625 147.203125 C 293.832031 147.882812 293.242188 148.535156 292.617188 149.160156 C 291.992188 149.78125 291.339844 150.375 290.660156 150.933594 C 289.980469 151.492188 289.273438 152.015625 288.539062 152.503906 C 287.804688 152.996094 287.050781 153.449219 286.273438 153.863281 C 285.496094 154.277344 284.699219 154.65625 283.886719 154.992188 C 283.074219 155.328125 282.242188 155.625 281.398438 155.882812 C 280.558594 156.136719 279.703125 156.351562 278.839844 156.523438 C 277.972656 156.695312 277.101562 156.824219 276.226562 156.910156 C 275.347656 156.996094 274.46875 157.039062 273.589844 157.039062 Z M 273.589844 115.878906 C 272.652344 115.882812 271.730469 115.976562 270.8125 116.164062 C 269.898438 116.347656 269.007812 116.621094 268.148438 116.980469 C 267.285156 117.339844 266.46875 117.78125 265.691406 118.304688 C 264.917969 118.824219 264.203125 119.417969 263.542969 120.082031 C 262.886719 120.742188 262.296875 121.464844 261.78125 122.242188 C 261.265625 123.019531 260.828125 123.84375 260.476562 124.707031 C 260.121094 125.570312 259.855469 126.460938 259.675781 127.378906 C 259.496094 128.292969 259.40625 129.21875 259.410156 130.15625 C 259.414062 131.089844 259.507812 132.011719 259.695312 132.929688 C 259.878906 133.84375 260.152344 134.734375 260.511719 135.59375 C 260.875 136.457031 261.3125 137.273438 261.835938 138.050781 C 262.359375 138.824219 262.949219 139.542969 263.613281 140.199219 C 264.277344 140.859375 264.996094 141.445312 265.773438 141.960938 C 266.554688 142.476562 267.375 142.914062 268.238281 143.265625 C 269.101562 143.621094 269.992188 143.886719 270.910156 144.066406 C 271.828125 144.246094 272.753906 144.335938 273.6875 144.332031 C 274.621094 144.328125 275.546875 144.234375 276.460938 144.046875 C 277.375 143.863281 278.265625 143.589844 279.125 143.230469 C 279.988281 142.871094 280.808594 142.429688 281.582031 141.90625 C 282.355469 141.386719 283.074219 140.792969 283.730469 140.128906 C 284.390625 139.46875 284.976562 138.746094 285.492188 137.96875 C 286.007812 137.191406 286.445312 136.367188 286.800781 135.503906 C 287.152344 134.640625 287.421875 133.75 287.597656 132.832031 C 287.777344 131.917969 287.867188 130.992188 287.863281 130.054688 C 287.863281 129.121094 287.769531 128.195312 287.585938 127.277344 C 287.402344 126.359375 287.128906 125.46875 286.769531 124.605469 C 286.410156 123.742188 285.96875 122.921875 285.449219 122.144531 C 284.925781 121.367188 284.335938 120.648438 283.671875 119.988281 C 283.007812 119.328125 282.289062 118.738281 281.507812 118.21875 C 280.730469 117.699219 279.910156 117.261719 279.042969 116.90625 C 278.179688 116.550781 277.285156 116.28125 276.367188 116.097656 C 275.449219 115.917969 274.523438 115.828125 273.589844 115.832031 Z M 273.589844 115.878906 " fill-opacity="1" fill-rule="nonzero"/><path fill="#00a79d" d="M 282.96875 329.929688 L 264.242188 329.929688 C 263.664062 329.929688 263.089844 329.902344 262.511719 329.84375 C 261.9375 329.789062 261.367188 329.703125 260.800781 329.589844 C 260.234375 329.476562 259.671875 329.335938 259.121094 329.167969 C 258.566406 329 258.023438 328.804688 257.488281 328.582031 C 256.957031 328.363281 256.433594 328.117188 255.925781 327.84375 C 255.414062 327.570312 254.921875 327.273438 254.4375 326.953125 C 253.957031 326.632812 253.496094 326.289062 253.046875 325.921875 C 252.601562 325.554688 252.175781 325.167969 251.765625 324.757812 C 251.355469 324.347656 250.96875 323.921875 250.601562 323.472656 C 250.234375 323.027344 249.890625 322.5625 249.570312 322.082031 C 249.25 321.601562 248.953125 321.109375 248.679688 320.597656 C 248.40625 320.089844 248.160156 319.566406 247.9375 319.03125 C 247.71875 318.5 247.523438 317.957031 247.355469 317.402344 C 247.1875 316.847656 247.046875 316.289062 246.933594 315.722656 C 246.820312 315.15625 246.734375 314.585938 246.679688 314.007812 C 246.621094 313.433594 246.59375 312.859375 246.59375 312.28125 L 246.59375 284.367188 C 246.589844 283.949219 246.632812 283.535156 246.710938 283.125 C 246.792969 282.714844 246.914062 282.316406 247.074219 281.929688 C 247.230469 281.542969 247.425781 281.175781 247.660156 280.824219 C 247.890625 280.476562 248.15625 280.15625 248.449219 279.859375 C 248.746094 279.5625 249.066406 279.300781 249.414062 279.066406 C 249.761719 278.835938 250.128906 278.636719 250.515625 278.476562 C 250.902344 278.316406 251.300781 278.195312 251.710938 278.113281 C 252.121094 278.035156 252.535156 277.992188 252.953125 277.992188 C 253.371094 277.992188 253.785156 278.035156 254.195312 278.113281 C 254.605469 278.195312 255.003906 278.316406 255.390625 278.476562 C 255.777344 278.636719 256.144531 278.835938 256.492188 279.066406 C 256.835938 279.300781 257.160156 279.5625 257.453125 279.859375 C 257.75 280.15625 258.015625 280.476562 258.246094 280.824219 C 258.476562 281.175781 258.671875 281.542969 258.832031 281.929688 C 258.992188 282.316406 259.113281 282.714844 259.191406 283.125 C 259.273438 283.535156 259.3125 283.949219 259.3125 284.367188 L 259.3125 312.28125 C 259.3125 312.601562 259.34375 312.917969 259.40625 313.234375 C 259.46875 313.550781 259.5625 313.855469 259.6875 314.152344 C 259.808594 314.449219 259.960938 314.730469 260.136719 315 C 260.316406 315.265625 260.519531 315.511719 260.746094 315.738281 C 260.972656 315.964844 261.21875 316.167969 261.488281 316.347656 C 261.753906 316.527344 262.035156 316.675781 262.332031 316.800781 C 262.628906 316.921875 262.9375 317.015625 263.25 317.078125 C 263.566406 317.140625 263.886719 317.171875 264.207031 317.171875 L 282.96875 317.171875 C 283.292969 317.171875 283.609375 317.140625 283.925781 317.078125 C 284.238281 317.015625 284.546875 316.921875 284.84375 316.800781 C 285.140625 316.675781 285.421875 316.527344 285.6875 316.347656 C 285.957031 316.167969 286.203125 315.964844 286.429688 315.738281 C 286.65625 315.511719 286.859375 315.265625 287.039062 315 C 287.21875 314.730469 287.367188 314.449219 287.492188 314.152344 C 287.613281 313.855469 287.707031 313.550781 287.769531 313.234375 C 287.832031 312.917969 287.863281 312.601562 287.863281 312.28125 L 287.863281 241.96875 C 287.84375 241.539062 287.867188 241.113281 287.9375 240.691406 C 288.003906 240.265625 288.113281 239.851562 288.265625 239.449219 C 288.414062 239.046875 288.605469 238.664062 288.835938 238.300781 C 289.0625 237.9375 289.324219 237.601562 289.621094 237.292969 C 289.917969 236.980469 290.246094 236.703125 290.597656 236.460938 C 290.949219 236.214844 291.324219 236.007812 291.71875 235.839844 C 292.113281 235.671875 292.523438 235.542969 292.941406 235.457031 C 293.363281 235.371094 293.789062 235.328125 294.21875 235.328125 C 294.648438 235.328125 295.074219 235.371094 295.492188 235.457031 C 295.914062 235.542969 296.320312 235.671875 296.714844 235.839844 C 297.109375 236.007812 297.484375 236.214844 297.839844 236.460938 C 298.191406 236.703125 298.515625 236.980469 298.8125 237.292969 C 299.109375 237.601562 299.371094 237.9375 299.601562 238.300781 C 299.832031 238.667969 300.019531 239.046875 300.171875 239.449219 C 300.324219 239.851562 300.433594 240.265625 300.5 240.691406 C 300.566406 241.113281 300.589844 241.539062 300.574219 241.96875 L 300.574219 312.28125 C 300.570312 312.855469 300.542969 313.433594 300.488281 314.007812 C 300.429688 314.582031 300.34375 315.152344 300.234375 315.714844 C 300.121094 316.28125 299.980469 316.839844 299.8125 317.394531 C 299.644531 317.945312 299.449219 318.488281 299.230469 319.019531 C 299.011719 319.554688 298.761719 320.074219 298.492188 320.585938 C 298.21875 321.09375 297.925781 321.589844 297.605469 322.066406 C 297.285156 322.546875 296.941406 323.011719 296.574219 323.457031 C 296.210938 323.902344 295.824219 324.332031 295.417969 324.738281 C 295.007812 325.148438 294.582031 325.535156 294.136719 325.902344 C 293.691406 326.269531 293.230469 326.613281 292.75 326.933594 C 292.269531 327.257812 291.777344 327.554688 291.269531 327.828125 C 290.761719 328.101562 290.242188 328.347656 289.707031 328.570312 C 289.175781 328.792969 288.632812 328.988281 288.082031 329.15625 C 287.53125 329.324219 286.972656 329.46875 286.40625 329.582031 C 285.839844 329.695312 285.269531 329.78125 284.695312 329.839844 C 284.121094 329.898438 283.546875 329.929688 282.96875 329.929688 Z M 282.96875 329.929688 " fill-opacity="1" fill-rule="nonzero"/><path fill="#00a79d" d="M 273.589844 329.929688 C 273.171875 329.929688 272.757812 329.890625 272.347656 329.8125 C 271.9375 329.730469 271.539062 329.609375 271.15625 329.449219 C 270.769531 329.292969 270.402344 329.097656 270.054688 328.863281 C 269.707031 328.632812 269.386719 328.371094 269.089844 328.074219 C 268.796875 327.78125 268.53125 327.460938 268.300781 327.113281 C 268.066406 326.765625 267.871094 326.398438 267.710938 326.015625 C 267.550781 325.628906 267.429688 325.230469 267.351562 324.824219 C 267.269531 324.414062 267.226562 324 267.226562 323.582031 L 267.226562 263.644531 C 267.226562 263.226562 267.269531 262.8125 267.351562 262.402344 C 267.429688 261.992188 267.550781 261.597656 267.710938 261.210938 C 267.871094 260.824219 268.066406 260.457031 268.300781 260.109375 C 268.53125 259.761719 268.796875 259.441406 269.089844 259.148438 C 269.386719 258.851562 269.707031 258.585938 270.054688 258.355469 C 270.402344 258.125 270.769531 257.925781 271.152344 257.769531 C 271.539062 257.609375 271.9375 257.488281 272.347656 257.40625 C 272.757812 257.324219 273.171875 257.285156 273.589844 257.285156 C 274.007812 257.285156 274.417969 257.324219 274.828125 257.40625 C 275.238281 257.488281 275.636719 257.609375 276.023438 257.769531 C 276.410156 257.925781 276.773438 258.125 277.121094 258.355469 C 277.46875 258.585938 277.789062 258.851562 278.085938 259.148438 C 278.382812 259.441406 278.644531 259.761719 278.878906 260.109375 C 279.109375 260.457031 279.304688 260.824219 279.464844 261.210938 C 279.625 261.597656 279.746094 261.992188 279.828125 262.402344 C 279.910156 262.8125 279.949219 263.226562 279.949219 263.644531 L 279.949219 323.582031 C 279.949219 324 279.910156 324.414062 279.828125 324.824219 C 279.746094 325.230469 279.625 325.628906 279.464844 326.015625 C 279.304688 326.398438 279.109375 326.765625 278.875 327.113281 C 278.644531 327.460938 278.378906 327.78125 278.085938 328.074219 C 277.789062 328.371094 277.46875 328.632812 277.121094 328.863281 C 276.773438 329.097656 276.40625 329.292969 276.023438 329.449219 C 275.636719 329.609375 275.238281 329.730469 274.828125 329.8125 C 274.417969 329.890625 274.003906 329.929688 273.589844 329.929688 Z M 273.589844 329.929688 " fill-opacity="1" fill-rule="nonzero"/><path fill="#00a79d" d="M 332.191406 228.976562 L 330.554688 228.976562 C 330.03125 228.976562 329.511719 228.953125 328.996094 228.902344 C 328.476562 228.851562 327.960938 228.773438 327.453125 228.671875 C 326.941406 228.570312 326.4375 228.445312 325.9375 228.292969 C 325.4375 228.140625 324.949219 227.96875 324.46875 227.769531 C 323.988281 227.570312 323.515625 227.347656 323.058594 227.101562 C 322.597656 226.855469 322.152344 226.585938 321.71875 226.296875 C 321.285156 226.007812 320.867188 225.699219 320.464844 225.367188 C 320.0625 225.039062 319.675781 224.6875 319.308594 224.320312 C 318.941406 223.953125 318.59375 223.566406 318.261719 223.164062 C 317.929688 222.761719 317.621094 222.34375 317.332031 221.910156 C 317.042969 221.476562 316.773438 221.03125 316.53125 220.574219 C 316.285156 220.113281 316.0625 219.644531 315.863281 219.160156 C 315.664062 218.679688 315.488281 218.191406 315.335938 217.691406 C 315.183594 217.195312 315.058594 216.691406 314.957031 216.179688 C 314.855469 215.667969 314.78125 215.152344 314.726562 214.636719 C 314.675781 214.117188 314.652344 213.597656 314.652344 213.078125 L 314.652344 182.605469 C 314.652344 181.878906 314.613281 181.152344 314.542969 180.425781 C 314.46875 179.699219 314.363281 178.980469 314.21875 178.265625 C 314.078125 177.550781 313.898438 176.847656 313.6875 176.148438 C 313.476562 175.453125 313.230469 174.769531 312.953125 174.09375 C 312.671875 173.421875 312.359375 172.765625 312.015625 172.121094 C 311.671875 171.480469 311.300781 170.855469 310.894531 170.25 C 310.488281 169.644531 310.054688 169.058594 309.59375 168.496094 C 309.132812 167.933594 308.644531 167.394531 308.128906 166.878906 C 307.613281 166.363281 307.074219 165.875 306.511719 165.414062 C 305.945312 164.953125 305.363281 164.519531 304.757812 164.113281 C 304.152344 163.707031 303.527344 163.332031 302.886719 162.988281 C 302.242188 162.648438 301.585938 162.335938 300.914062 162.054688 C 300.238281 161.777344 299.554688 161.53125 298.859375 161.320312 C 298.160156 161.105469 297.453125 160.929688 296.742188 160.789062 C 296.027344 160.644531 295.304688 160.539062 294.582031 160.464844 C 293.855469 160.394531 293.128906 160.355469 292.402344 160.355469 L 254.761719 160.355469 C 254.035156 160.355469 253.308594 160.394531 252.582031 160.464844 C 251.859375 160.539062 251.136719 160.644531 250.421875 160.789062 C 249.710938 160.929688 249.003906 161.105469 248.308594 161.320312 C 247.609375 161.53125 246.925781 161.777344 246.25 162.054688 C 245.578125 162.335938 244.921875 162.648438 244.277344 162.988281 C 243.636719 163.332031 243.011719 163.707031 242.40625 164.113281 C 241.800781 164.519531 241.21875 164.953125 240.652344 165.414062 C 240.089844 165.875 239.550781 166.363281 239.035156 166.878906 C 238.523438 167.394531 238.03125 167.933594 237.570312 168.496094 C 237.109375 169.058594 236.675781 169.644531 236.269531 170.25 C 235.863281 170.855469 235.492188 171.480469 235.148438 172.121094 C 234.804688 172.765625 234.492188 173.421875 234.210938 174.09375 C 233.933594 174.769531 233.6875 175.453125 233.476562 176.148438 C 233.265625 176.847656 233.085938 177.550781 232.945312 178.265625 C 232.800781 178.980469 232.695312 179.699219 232.621094 180.425781 C 232.550781 181.152344 232.511719 181.878906 232.511719 182.605469 L 232.511719 268.5625 C 233.386719 268.445312 234.242188 268.25 235.078125 267.976562 C 235.917969 267.707031 236.726562 267.363281 237.5 266.945312 C 238.277344 266.527344 239.011719 266.046875 239.699219 265.496094 C 240.390625 264.949219 241.023438 264.339844 241.605469 263.679688 C 242.183594 263.015625 242.699219 262.304688 243.152344 261.550781 C 243.605469 260.792969 243.984375 260.003906 244.296875 259.175781 C 244.605469 258.351562 244.839844 257.507812 244.996094 256.640625 C 245.15625 255.773438 245.234375 254.898438 245.234375 254.019531 L 245.234375 182.605469 C 245.234375 181.980469 245.296875 181.359375 245.417969 180.746094 C 245.539062 180.132812 245.71875 179.539062 245.960938 178.960938 C 246.199219 178.382812 246.492188 177.832031 246.839844 177.3125 C 247.1875 176.792969 247.582031 176.3125 248.023438 175.867188 C 248.46875 175.425781 248.949219 175.03125 249.46875 174.683594 C 249.988281 174.335938 250.539062 174.042969 251.117188 173.800781 C 251.695312 173.5625 252.289062 173.382812 252.902344 173.261719 C 253.515625 173.136719 254.136719 173.078125 254.761719 173.078125 L 292.402344 173.078125 C 293.027344 173.078125 293.648438 173.136719 294.261719 173.261719 C 294.875 173.382812 295.46875 173.5625 296.046875 173.800781 C 296.625 174.042969 297.175781 174.335938 297.695312 174.683594 C 298.214844 175.03125 298.695312 175.425781 299.140625 175.867188 C 299.582031 176.308594 299.976562 176.792969 300.324219 177.3125 C 300.671875 177.832031 300.964844 178.382812 301.203125 178.960938 C 301.445312 179.539062 301.625 180.132812 301.746094 180.746094 C 301.871094 181.359375 301.929688 181.980469 301.929688 182.605469 L 301.929688 213.078125 C 301.929688 214.011719 301.980469 214.949219 302.070312 215.882812 C 302.164062 216.8125 302.300781 217.738281 302.488281 218.65625 C 302.671875 219.578125 302.898438 220.484375 303.171875 221.382812 C 303.445312 222.277344 303.757812 223.160156 304.117188 224.023438 C 304.476562 224.890625 304.878906 225.734375 305.320312 226.5625 C 305.761719 227.386719 306.246094 228.191406 306.765625 228.96875 C 307.285156 229.75 307.84375 230.5 308.4375 231.226562 C 309.035156 231.949219 309.660156 232.644531 310.324219 233.304688 C 310.988281 233.96875 311.679688 234.597656 312.40625 235.191406 C 313.128906 235.785156 313.882812 236.34375 314.660156 236.863281 C 315.4375 237.386719 316.242188 237.867188 317.066406 238.308594 C 317.894531 238.75 318.738281 239.152344 319.605469 239.511719 C 320.472656 239.871094 321.351562 240.1875 322.25 240.460938 C 323.144531 240.730469 324.054688 240.960938 324.972656 241.144531 C 325.890625 241.328125 326.816406 241.464844 327.75 241.558594 C 328.683594 241.652344 329.617188 241.699219 330.554688 241.699219 L 332.191406 241.699219 Z M 332.191406 228.976562 " fill-opacity="1" fill-rule="nonzero"/><path fill="#00a79d" d="M 228.535156 29.753906 C 221.808594 28.152344 215.011719 26.949219 208.144531 26.140625 C 201.273438 25.335938 194.382812 24.933594 187.46875 24.933594 C 180.550781 24.933594 173.660156 25.335938 166.792969 26.140625 C 159.921875 26.949219 153.125 28.152344 146.398438 29.753906 L 146.398438 40.625 C 153.113281 38.933594 159.902344 37.660156 166.773438 36.804688 C 173.644531 35.953125 180.542969 35.527344 187.46875 35.527344 C 194.390625 35.527344 201.289062 35.953125 208.160156 36.804688 C 215.03125 37.660156 221.824219 38.933594 228.535156 40.625 Z M 228.535156 29.753906 " fill-opacity="1" fill-rule="nonzero"/></svg>